<?xml version="1.0" encoding="UTF-8"?>
<svg id="Layer_2" data-name="Layer 2" xmlns="http://www.w3.org/2000/svg" viewBox="0 0 825.35 161.57">
  <defs>
    <style>
      .cls-1 {
        fill: #fff;
      }

      .cls-2 {
        fill: #2563eb;
      }

      .cls-3 {
        fill: #a3b4d3;
      }
    </style>
  </defs>
  <g id="Layer_1-2" data-name="Layer 1">
    <g>
      <g>
        <g>
          <g>
            <path class="cls-2" d="M247.62,65.39v18.95c-3.19,1.72-6.15,3.17-8.86,4.35s-5.19,2.08-7.43,2.71-4.57,1.1-6.98,1.42-4.92.47-7.52.47c-3.61,0-7.08-.27-10.42-.81s-6.55-1.35-9.63-2.43c-2.41-.83-4.57-1.76-6.47-2.81s-3.55-2.2-4.93-3.46c-1.39-1.26-2.72-2.83-4-4.69s-2.51-4.03-3.68-6.5c-1.17-2.47-2.05-5.08-2.63-7.84s-.88-5.67-.88-8.72v-10.2c0-4.71.72-9.16,2.15-13.36s3.59-8.15,6.46-11.85c3.86-5.01,8.41-8.76,13.66-11.26s11.19-3.75,17.83-3.75c1.93,0,3.81.1,5.64.29s3.61.49,5.35.88c1.73.39,3.42.88,5.07,1.46s3.25,1.27,4.81,2.05c.94-.85,1.87-1.49,2.79-1.91s1.83-.64,2.72-.64c1.03,0,1.97.18,2.81.53s1.58.89,2.22,1.6c.64.71,1.12,1.67,1.45,2.88s.48,2.66.48,4.36v9.16c0,1.7-.16,3.16-.49,4.37s-.82,2.18-1.47,2.9c-.65.72-1.4,1.27-2.25,1.63s-1.78.54-2.82.54c-.83,0-1.6-.13-2.31-.38s-1.37-.63-1.96-1.14c-.46-.34-.88-.9-1.27-1.66s-.73-1.74-1.04-2.92c-.31-1.18-.64-2.17-.99-2.97s-.72-1.4-1.11-1.82c-.62-.67-1.48-1.29-2.57-1.89s-2.43-1.15-4-1.66c-1.57-.52-3.24-.9-5-1.16s-3.62-.39-5.57-.39c-2.8,0-5.42.29-7.85.86s-4.68,1.44-6.75,2.58c-1.47.85-2.88,2.02-4.24,3.5s-2.65,3.28-3.89,5.39c-1.24,2.11-2.17,4.32-2.79,6.61s-.93,4.68-.93,7.16v10.2c0,3.79.55,7.12,1.64,10s2.74,5.3,4.93,7.26c2.19,1.96,5.03,3.44,8.52,4.42s7.62,1.47,12.39,1.47c3.24,0,6.33-.3,9.28-.91s5.76-1.52,8.42-2.74v-10.13h-14.4c-1.7,0-3.16-.16-4.37-.49s-2.18-.82-2.9-1.47c-.72-.65-1.27-1.41-1.63-2.26s-.54-1.81-.54-2.87.18-2.01.54-2.87.9-1.61,1.63-2.27c.72-.65,1.69-1.15,2.9-1.47s2.67-.49,4.37-.49l12.54.03,12.54.03c1.7,0,3.15.16,4.37.48s2.18.8,2.9,1.45c.72.64,1.27,1.39,1.63,2.24s.54,1.8.54,2.86c0,.83-.12,1.6-.37,2.32s-.62,1.39-1.11,2.02c-.49.62-1.12,1.16-1.87,1.62s-1.63.84-2.64,1.14Z"/>
            <path class="cls-2" d="M364.38,30.73v4.75c1.29-1.1,2.64-2.07,4.06-2.89s2.9-1.52,4.45-2.07,3.17-.96,4.85-1.24,3.43-.41,5.24-.41c4.18,0,7.92.65,11.23,1.95s6.18,3.24,8.61,5.84c1.93,2.07,3.38,4.46,4.34,7.17s1.45,5.74,1.45,9.09v26.25c1.49,0,2.79.16,3.89.49s2.01.82,2.72,1.47c.71.65,1.25,1.41,1.6,2.26s.53,1.81.53,2.87-.18,1.97-.54,2.82-.9,1.59-1.63,2.25c-.72.65-1.69,1.15-2.9,1.47s-2.67.49-4.37.49h-12.74c-1.7,0-3.16-.16-4.37-.49s-2.18-.82-2.9-1.47c-.72-.65-1.27-1.41-1.63-2.26s-.54-1.81-.54-2.87.18-1.97.53-2.82.89-1.59,1.6-2.25c.71-.65,1.62-1.15,2.72-1.47s2.4-.49,3.89-.49v-26.66c0-1.54-.21-2.87-.62-4s-1.03-2.04-1.86-2.76c-1.08-.92-2.43-1.61-4.05-2.07s-3.51-.69-5.67-.69c-1.63,0-3.16.16-4.59.47s-2.76.79-3.99,1.42c-1.23.63-2.62,1.62-4.18,2.95s-3.28,3.03-5.16,5.07v26.25c1.81,0,3.31.09,4.48.26s2.02.43,2.55.78c1.12.69,1.97,1.54,2.53,2.55s.84,2.18.84,3.51c0,1.03-.18,1.97-.54,2.82s-.9,1.59-1.63,2.25c-.72.65-1.69,1.15-2.9,1.47s-2.67.49-4.37.49h-16.05c-1.7,0-3.16-.16-4.37-.49s-2.18-.82-2.9-1.47c-.72-.65-1.27-1.41-1.63-2.26s-.54-1.81-.54-2.87c0-1.29.28-2.43.83-3.43s1.38-1.85,2.48-2.57c.55-.34,1.42-.6,2.6-.78s2.68-.26,4.5-.26v-34.31c-1.49,0-2.79-.17-3.89-.5s-2.01-.83-2.72-1.5c-.71-.67-1.25-1.42-1.6-2.27s-.53-1.79-.53-2.82.18-1.97.54-2.82.9-1.59,1.63-2.25c.72-.65,1.69-1.15,2.9-1.47s2.67-.49,4.37-.49h13.43Z"/>
            <path class="cls-2" d="M447.47,30.73v4c1.15-1.12,2.24-2.07,3.28-2.85s2.02-1.38,2.95-1.8c.93-.42,1.93-.74,3.01-.96s2.22-.32,3.44-.32c1.03,0,2.06.13,3.08.38s2.04.63,3.05,1.14c1.01.51,2.01,1.14,3,1.89s1.96,1.64,2.93,2.65c1.22-1.01,2.44-1.89,3.68-2.64s2.48-1.37,3.73-1.87c1.25-.49,2.52-.86,3.8-1.11s2.57-.37,3.88-.37c2.62,0,4.99.35,7.11,1.05s4,1.75,5.63,3.15c2.16,1.84,3.78,3.96,4.86,6.37s1.62,5.11,1.62,8.09v31.62c1.47,0,2.75.17,3.84.5s1.99.83,2.7,1.5c.71.67,1.25,1.42,1.6,2.27s.53,1.79.53,2.82-.18,1.97-.53,2.82-.89,1.59-1.6,2.25c-.71.65-1.67,1.15-2.88,1.47s-2.66.49-4.36.49h-13.43v-44.57c0-1.08-.1-1.99-.29-2.74s-.49-1.33-.88-1.74c-.39-.41-.88-.72-1.48-.93s-1.3-.31-2.1-.31-1.53.1-2.26.31-1.42.52-2.08.93c-.85.57-1.79,1.4-2.82,2.48s-2.16,2.41-3.38,4v28.45c1.47,0,2.75.17,3.84.5s1.99.83,2.7,1.5c.71.67,1.25,1.42,1.6,2.27s.53,1.79.53,2.82-.18,1.97-.53,2.82-.89,1.59-1.6,2.25c-.71.65-1.67,1.15-2.88,1.47s-2.66.49-4.36.49h-13.43v-44.57c0-1.06-.1-1.95-.3-2.7s-.5-1.32-.9-1.75c-.4-.42-.9-.74-1.51-.96s-1.31-.32-2.11-.32-1.65.13-2.46.39-1.62.65-2.43,1.16c-.8.52-1.69,1.29-2.65,2.32s-2.01,2.31-3.13,3.85v28.45c1.47,0,2.75.17,3.85.5s2.01.83,2.73,1.5c.72.67,1.27,1.42,1.63,2.27s.54,1.79.54,2.82-.18,1.97-.54,2.82-.9,1.59-1.63,2.25c-.72.65-1.69,1.15-2.9,1.47s-2.67.49-4.37.49h-12.75c-1.7,0-3.16-.16-4.37-.49s-2.18-.82-2.9-1.47c-.72-.65-1.27-1.41-1.63-2.26s-.54-1.81-.54-2.87.18-1.97.53-2.82.89-1.59,1.6-2.25c.71-.65,1.62-1.15,2.72-1.47s2.4-.49,3.89-.49v-34.31c-1.49,0-2.79-.17-3.89-.5s-2.01-.83-2.72-1.5c-.71-.67-1.25-1.42-1.6-2.27s-.53-1.79-.53-2.82.18-1.97.54-2.82.9-1.59,1.63-2.25c.72-.65,1.69-1.15,2.9-1.47s2.67-.49,4.37-.49h13.43Z"/>
            <path class="cls-2" d="M589.28,59.68l-28.45,5.43-28.45,5.43c1.07,1.67,2.38,3.11,3.94,4.32s3.36,2.19,5.41,2.95c2.05.75,4.37,1.17,6.96,1.25s5.46-.18,8.59-.78c2.57-.49,5.51-1.34,8.82-2.54s6.99-2.77,11.05-4.69c1.67-.79,3.1-1.41,4.27-1.87s2.1-.75,2.78-.88c.92-.18,1.81-.18,2.65,0s1.64.53,2.4,1.07c.76.53,1.37,1.18,1.84,1.94s.8,1.64.99,2.63c.17.9.16,1.77-.03,2.6s-.57,1.63-1.12,2.39c-.74,1.01-2.14,2.12-4.19,3.33s-4.75,2.53-8.1,3.96c-3.35,1.42-6.67,2.64-9.96,3.66s-6.55,1.84-9.77,2.45c-5.55,1.06-10.69,1.23-15.43.51s-9.07-2.33-12.99-4.83c-3.93-2.5-7.09-5.52-9.49-9.06s-4.04-7.6-4.91-12.18c-.93-4.87-.87-9.46.17-13.77s3.07-8.33,6.09-12.08c3.01-3.74,6.45-6.77,10.3-9.09s8.13-3.93,12.82-4.82c2.82-.54,5.57-.81,8.25-.8s5.3.27,7.84.82c2.55.54,4.8,1.18,6.76,1.92s3.62,1.57,4.99,2.5c1.94,1.36,3.78,2.94,5.52,4.75s3.37,3.84,4.9,6.09c1.05,1.58,1.94,3.32,2.68,5.24s1.32,4,1.76,6.26l.56,2.94.56,2.94ZM571.28,48.74c-1.44-1.78-2.99-3.28-4.66-4.5s-3.46-2.15-5.36-2.81c-1.9-.65-3.92-1.03-6.05-1.13s-4.39.08-6.75.53-4.49,1.11-6.42,1.99-3.67,1.97-5.19,3.28c-1.53,1.31-2.85,2.84-3.96,4.59s-2.02,3.72-2.73,5.91l20.57-3.93,20.57-3.93Z"/>
            <path class="cls-2" d="M333.71,59.68l-28.45,5.43-28.45,5.43c1.07,1.67,2.38,3.11,3.94,4.32s3.36,2.19,5.41,2.95c2.05.75,4.37,1.17,6.96,1.25s5.46-.18,8.59-.78c2.57-.49,5.51-1.34,8.82-2.54s6.99-2.77,11.05-4.69c1.67-.79,3.1-1.41,4.27-1.87s2.1-.75,2.78-.88c.92-.18,1.81-.18,2.65,0s1.64.53,2.4,1.07c.76.53,1.37,1.18,1.84,1.94s.8,1.64.99,2.63c.17.9.16,1.77-.03,2.6s-.57,1.63-1.12,2.39c-.74,1.01-2.14,2.12-4.19,3.33s-4.75,2.53-8.1,3.96c-3.35,1.42-6.67,2.64-9.96,3.66s-6.55,1.84-9.77,2.45c-5.55,1.06-10.69,1.23-15.43.51s-9.07-2.33-12.99-4.83c-3.93-2.5-7.09-5.52-9.49-9.06s-4.04-7.6-4.91-12.18c-.93-4.87-.87-9.46.17-13.77s3.07-8.33,6.09-12.08c3.01-3.74,6.45-6.77,10.3-9.09s8.13-3.93,12.82-4.82c2.82-.54,5.57-.81,8.25-.8s5.3.27,7.84.82c2.55.54,4.8,1.18,6.76,1.92s3.62,1.57,4.99,2.5c1.94,1.36,3.78,2.94,5.52,4.75s3.37,3.84,4.9,6.09c1.05,1.58,1.94,3.32,2.68,5.24s1.32,4,1.76,6.26l.56,2.94.56,2.94ZM315.7,48.74c-1.44-1.78-2.99-3.28-4.66-4.5s-3.46-2.15-5.36-2.81c-1.9-.65-3.92-1.03-6.05-1.13s-4.39.08-6.75.53-4.49,1.11-6.42,1.99-3.67,1.97-5.19,3.28c-1.53,1.31-2.85,2.84-3.96,4.59s-2.02,3.72-2.73,5.91l20.57-3.93,20.57-3.93Z"/>
            <path class="cls-2" d="M618.1,42.58v28.31c0,1.52.16,2.77.47,3.77s.78,1.74,1.4,2.22c.96.76,2.31,1.33,4.03,1.71s3.82.57,6.3.57c3.6,0,7.07-.38,10.4-1.15s6.52-1.92,9.58-3.46c1.17-.6,2.22-1.04,3.13-1.34s1.71-.45,2.38-.45c.92,0,1.78.17,2.57.52s1.54.86,2.21,1.55c.68.69,1.19,1.45,1.52,2.29s.51,1.75.51,2.74c0,.92-.18,1.77-.55,2.57s-.92,1.52-1.65,2.19c-1.13,1.08-2.8,2.12-5.02,3.11s-4.99,1.94-8.31,2.85c-3.32.91-6.38,1.59-9.17,2.04s-5.33.68-7.6.68c-4.39,0-8.22-.47-11.51-1.42s-6.03-2.37-8.22-4.26c-2.19-1.89-3.84-4-4.93-6.33s-1.64-4.87-1.64-7.62v-31.07h-5.1c-1.7,0-3.16-.16-4.37-.49s-2.18-.82-2.9-1.47c-.72-.65-1.27-1.41-1.63-2.27s-.54-1.81-.54-2.87.18-1.97.54-2.82.9-1.59,1.63-2.25c.72-.65,1.69-1.15,2.9-1.47s2.67-.49,4.37-.49h5.1v-12.75c0-1.7.16-3.15.49-4.37s.82-2.18,1.47-2.9c.65-.72,1.41-1.27,2.26-1.63s1.81-.54,2.87-.54,1.97.18,2.82.54,1.59.9,2.25,1.63c.65.72,1.15,1.69,1.47,2.9s.49,2.67.49,4.37v12.75h26.11c1.7,0,3.15.16,4.37.49s2.18.82,2.9,1.47c.72.65,1.27,1.41,1.63,2.27s.54,1.81.54,2.87-.18,1.97-.54,2.82-.9,1.59-1.63,2.25c-.72.65-1.69,1.15-2.9,1.47s-2.67.49-4.37.49h-26.11Z"/>
            <path class="cls-2" d="M716.75,90.94v-3.31c-1.77.94-3.63,1.77-5.58,2.47s-4,1.29-6.13,1.76c-2.14.47-4.17.82-6.11,1.06s-3.78.35-5.53.35c-3.79,0-7.22-.5-10.3-1.51s-5.8-2.51-8.16-4.52c-2.37-2.01-4.14-4.12-5.32-6.35s-1.77-4.55-1.77-6.98c0-2.96.75-5.82,2.26-8.57s3.77-5.39,6.79-7.93c3.02-2.54,6.62-4.44,10.79-5.71s8.92-1.9,14.25-1.9c2.14,0,4.44.11,6.91.34s5.1.57,7.91,1.03v-3.38c0-1.06-.23-2.01-.68-2.88s-1.13-1.63-2.04-2.29c-.91-.67-2.22-1.16-3.95-1.5s-3.87-.5-6.42-.5c-2.09,0-4.49.21-7.2.62s-5.73,1.03-9.06,1.86c-1.24.3-2.34.52-3.31.67s-1.79.22-2.48.22c-.94,0-1.81-.17-2.61-.51s-1.52-.85-2.18-1.52c-.65-.68-1.15-1.45-1.47-2.32s-.49-1.83-.49-2.89c0-.6.06-1.15.17-1.67s.29-.99.52-1.43c.23-.44.5-.83.83-1.18s.69-.66,1.1-.92c.41-.26,1.05-.55,1.91-.87s1.95-.66,3.26-1.03c1.74-.48,3.51-.92,5.29-1.3s3.58-.72,5.39-1.01c1.81-.29,3.54-.5,5.18-.65s3.2-.22,4.67-.22c4.39,0,8.28.47,11.69,1.42s6.32,2.37,8.74,4.26c2.42,1.89,4.24,4.14,5.45,6.73s1.82,5.53,1.82,8.81v29.07h2.41c1.7,0,3.15.16,4.37.49s2.18.82,2.9,1.47,1.27,1.41,1.63,2.26.54,1.81.54,2.87-.18,1.97-.54,2.82-.9,1.59-1.63,2.25c-.72.65-1.69,1.15-2.9,1.47s-2.67.49-4.37.49h-16.53ZM716.75,65.66c-2.82-.55-5.54-.96-8.15-1.24s-5.1-.41-7.49-.41c-2.87,0-5.54.35-8.01,1.05s-4.74,1.75-6.8,3.15c-1.29.9-2.25,1.8-2.89,2.7s-.96,1.82-.96,2.74c0,.67.16,1.27.47,1.81s.77,1.02,1.39,1.43c1.15.76,2.51,1.33,4.08,1.71s3.36.57,5.36.57c1.7,0,3.51-.17,5.43-.5s3.96-.83,6.11-1.5c2.15-.67,4.18-1.45,6.09-2.36s3.71-1.93,5.38-3.08v-6.06Z"/>
          </g>
          <g>
            <path class="cls-3" d="M188.97,141.15c-.92.24-2.52.38-4.2.47s-3.44.1-4.68.07c-.77,0-1.61.16-2.26.13s-1.11-.27-1.11-1.07c0-.56,1.02-.83,2.32-.95s2.89-.11,4.01-.11c0-.09.06-.4.12-.71s.12-.62.12-.71c0-2.28-.09-4.54-.18-6.82s-.18-4.57-.18-6.91c-.92,0-1.76.09-2.58.18s-1.6.18-2.4.18c-.71,0-1.48.03-2.07-.11s-1.01-.45-1.01-1.13c0-.15.04-.28.14-.4s.24-.22.45-.31c.5,0,2.09-.13,3.69-.27s3.21-.27,3.77-.27c.3-.18.83,0,1.29.36s.84.89.84,1.42c0,1.3-.06,2.59-.12,3.91s-.12,2.66-.12,4.08c0,1.24.04,2.49.18,3.72s.38,2.44.76,3.63h1.36c.56,0,1.15-.03,1.72-.06s1.1-.06,1.54-.06c.36,0,.62.13.82.34s.33.49.42.78c-.03.12-.19.31-.35.48s-.33.32-.36.35l-.98-.09-.98-.09ZM181.68,107.69c.33,0,.95.44,1.49.98s1,1.15,1,1.51c0,.62-.22,1.15-.6,1.53s-.91.6-1.53.6c-.71,0-1.2-.28-1.51-.73s-.44-1.07-.44-1.75c0-.53.04-1.07.27-1.47s.62-.67,1.33-.67Z"/>
            <path class="cls-3" d="M220.59,141.56c-.24,0-.43-.12-.56-.3s-.19-.44-.16-.7c0-.06.04-.3.14-.52s.24-.43.45-.43h2.55l.27-.09.27-.09.03-.77.03-.77c0-.44,0-.99,0-1.7s.02-1.58.05-2.68c.03-1.98-.03-4.44-.5-6.4s-1.36-3.43-2.99-3.43c-1.75,0-3.43,1.02-4.69,2.49s-2.09,3.37-2.12,5.15l-.06,4.03-.06,4.03h2.55c.15,0,.3.21.41.44s.19.48.19.57c-.03.5-.65.78-1.52.94s-1.98.18-2.98.18h-2.6c-.44,0-.84-.03-1.12-.17s-.44-.39-.41-.84c0-.12.06-.36.16-.56s.25-.38.43-.38h2.43c0-.56.09-1.52.19-2.71s.2-2.59.23-4.04c.06-2.16-.04-4.43-.5-6.15s-1.27-2.91-2.63-2.91c-2.04,0-3.89,1.63-5.23,3.35s-2.17,3.55-2.17,3.93c-.06,1.95-.06,3.41-.04,4.52s.07,1.9.1,2.52l.06.59.06.59.15.15.15.15h3.32c.15,0,.34.21.5.43s.27.46.27.52c0,.53-.38.83-1.07.99s-1.68.19-2.89.19h-.89c-.27,0-.53.01-.8.03s-.53.03-.8.03c-1.07,0-2.18-.06-3.02-.24s-1.42-.5-1.42-1c0-.24.09-.52.24-.74s.38-.39.64-.39h3.73s-.01-3.61-.03-7.29-.03-7.42-.03-7.69c0-.12-.3-.27-.67-.38s-.84-.21-1.16-.21c-.47,0-.64.06-.79.12s-.3.12-.75.12c-.5,0-.95-.06-1.27-.24s-.51-.5-.51-1c.03-.36.22-.55.53-.65s.72-.12,1.19-.12h1.12c.77,0,1.88-.01,2.79.1s1.62.35,1.59.85l-.03,1.95-.03,1.95c.89-1.15,1.88-2.37,3.03-3.29s2.47-1.56,4.01-1.56c1.75,0,2.71.55,3.42,1.43s1.17,2.09,1.91,3.43c.77-1.42,1.6-2.64,2.63-3.49s2.26-1.36,3.83-1.36c2.93,0,4.51,1.89,5.36,4.41s.95,5.65.92,8.14c-.03.5-.06.98-.08,1.44s-.04.93-.04,1.4l-.03,1.01-.03,1.01c.62,0,1.78.06,2.78.23s1.84.45,1.84.9c0,.27-.12.52-.3.7s-.41.3-.65.3h-8.88Z"/>
            <path class="cls-3" d="M246.46,138.78c-.83.74-1.92,1.48-3.15,2.04s-2.57.93-3.9.93-2.72-.21-3.83-.86-1.88-1.75-1.79-3.52c.06-2.1.96-3.42,2.26-4.21s2.98-1.06,4.61-1.06c.98,0,1.98.09,2.97.23s1.95.33,2.83.54c.3-2.52-.13-4.75-1.14-6.36s-2.59-2.58-4.6-2.58c-1.72,0-2.58.87-3.18,1.75s-.94,1.75-1.62,1.75c-.3,0-.55-.16-.72-.4s-.26-.55-.23-.84c.06-1.54.77-2.56,1.78-3.2s2.33-.89,3.6-.89c6.36,0,7.98,4.44,8.33,8.88s-.57,8.88.73,8.88c.62,0,.95-.44,1.2-.89s.43-.89.76-.89c.18,0,.37.04.54.11s.32.16.41.24c-.06.83-.18,1.69-.52,2.34s-.9,1.09-1.85,1.09c-.8,0-1.61-.19-2.26-.61s-1.12-1.07-1.24-1.99v-.47ZM239.59,139.67c1.39,0,3.23-.44,4.66-1.25s2.47-1.98,2.26-3.43c-.71-.27-1.61-.53-2.6-.73s-2.05-.33-3.09-.33c-1.15,0-2.26.16-3.12.64s-1.44,1.26-1.56,2.5c-.06,1.1.36,1.75,1.01,2.12s1.54.48,2.43.48Z"/>
            <path class="cls-3" d="M262.04,137.59c-.56.56-1.35,1.36-1.99,2.12s-1.15,1.49-1.15,1.9c0,.83,3.98,1.38,7.96,2.86s7.96,3.89,7.96,8.45c0,2.28-1.21,4.44-3.33,6.03s-5.14,2.61-8.75,2.61c-3.4,0-5.85-.84-7.44-2.12s-2.33-2.98-2.33-4.69c0-1.95,1.14-3.46,2.42-4.48s2.7-1.55,3.26-1.55c.21,0,.59.07.87.3s.44.61.2,1.24c-.15.38-1.29.64-2.39,1.22s-2.17,1.5-2.17,3.22c0,1.01.78,2.22,2.21,3.18s3.5,1.67,6.08,1.67c2.22,0,4.46-.86,6.14-2.1s2.8-2.87,2.8-4.41c0-3.94-4.04-5.64-8.08-6.85s-8.08-1.92-8.08-3.87c0-.98.56-1.91,1.34-2.79s1.77-1.71,2.63-2.48c-1.54-.92-2.78-1.9-3.64-3.03s-1.33-2.42-1.33-3.96c0-2.28.84-4.4,2.24-5.94s3.35-2.52,5.57-2.52c.3,0,1.01.03,1.8.1s1.66.19,2.29.37c.74-1.98,1.79-3.31,2.91-4.15s2.3-1.18,3.31-1.18c.68,0,1.33.19,1.81.55s.79.87.79,1.52c0,.38-.13.7-.32.91s-.42.33-.63.33c-.27,0-.62-.19-1.01-.38s-.82-.38-1.24-.38c-.71,0-1.39.12-2.02.64s-1.21,1.44-1.71,3.03c.8.41,1.79,1.32,2.58,2.4s1.38,2.34,1.38,3.46c0,2.9-1.36,5.12-3.37,6.62s-4.66,2.26-7.23,2.26l-.18-.06-.18-.06ZM264.05,135.58c1.78,0,3.37-.74,4.53-1.92s1.87-2.79,1.87-4.54c0-1.89-.81-3.32-2.13-4.26s-3.14-1.42-5.15-1.42c-1.69,0-3.18.84-4.26,2.12s-1.72,2.98-1.72,4.69,1.07,3.05,2.46,3.95,3.11,1.38,4.41,1.38Z"/>
            <path class="cls-3" d="M278.2,129.96c.89-2.19,1.98-4.22,3.52-5.7s3.52-2.41,6.19-2.41c1.69,0,3.85.4,5.59,1.34s3.06,2.42,3.06,4.58c0,.53-.58.99-1.25,1.33s-1.44.56-1.83.62c-2.69.3-4.53.5-6.41.64s-3.8.19-6.68.19c0,2.37.64,4.78,1.95,6.6s3.29,3.05,5.99,3.05c1.57,0,3.18-.8,4.58-1.6s2.58-1.6,3.29-1.6c.38,0,.68.06.88.21s.3.41.3.79c0,1.51-1.67,2.56-3.6,3.23s-4.1.97-5.11.97c-2.96,0-5.58-1.18-7.46-3.1s-3.02-4.57-3.02-7.5v-1.66ZM280.81,128.71c.3,0,1.17-.06,2.05-.12s1.77-.12,2.09-.12c1.48,0,3.11-.03,4.71-.18s3.19-.41,4.58-.89v-.18c0-1.39-1.04-2.31-2.32-2.88s-2.83-.79-3.83-.79c-1.1,0-2.77.64-4.24,1.6s-2.75,2.25-3.04,3.55Z"/>
            <path class="cls-3" d="M302.36,142.98c-.12,0-.21-.33-.27-.84s-.09-1.23-.09-2c0-.86.04-1.79.1-2.6s.11-1.49.14-1.84c.03-.3.1-.49.23-.61s.3-.16.54-.16c.8,0,1.14.52,1.28,1.19s.08,1.5.08,2.12c.56.95,1.58,1.51,2.78,1.84s2.55.41,3.8.41c1.15,0,2.43-.13,3.41-.61s1.68-1.29,1.68-2.65c0-2.58-3.39-3.63-6.78-4.82s-6.78-2.52-6.78-5.66c0-1.98,1.12-3.29,2.68-4.09s3.54-1.12,5.25-1.12c1.42,0,2.66.28,3.63.6s1.64.67,1.94.82c.03-.15.04-.33.05-.5s0-.33,0-.45v-1.01c0-.47.15-.71.35-.83s.45-.12.66-.12c.53.03.78.38.9.92s.1,1.24.1,1.98c0,2.13-.04,3.42-.19,4.17s-.4.98-.81.98c-.53,0-.86-.19-1.05-.49s-.25-.7-.25-1.11c0-.3.03-.59.06-.88s.06-.57.06-.84c0-.21-1.07-.59-2.29-.92s-2.6-.61-3.22-.61c-1.21,0-2.63.22-3.75.78s-1.93,1.47-1.93,2.83c0,2.25,3.42,3.27,6.84,4.57s6.84,2.86,6.84,6.21c0,1.87-.98,3.02-2.38,3.71s-3.22.91-4.91.91c-1.6,0-2.8-.13-3.86-.38s-2-.62-3.06-1.1c0,.12.01.31.03.54s.03.5.03.76c0,.3-.03.56-.11.75s-.21.31-.42.31l-.65-.09-.65-.09Z"/>
            <path class="cls-3" d="M364.71,141.56c-.24,0-.43-.12-.56-.3s-.18-.44-.16-.7c0-.06.04-.3.14-.52s.24-.43.45-.43h2.55l.27-.09.27-.09.03-.77.03-.77c0-.44,0-.99,0-1.7s.02-1.58.05-2.68c.03-1.98-.03-4.44-.5-6.4s-1.36-3.43-2.99-3.43c-1.75,0-3.43,1.02-4.69,2.49s-2.09,3.37-2.12,5.15l-.06,4.03-.06,4.03h2.55c.15,0,.3.21.41.44s.19.48.19.57c-.03.5-.65.78-1.52.94s-1.98.18-2.98.18h-2.6c-.44,0-.84-.03-1.12-.17s-.44-.39-.41-.84c0-.12.06-.36.16-.56s.25-.38.43-.38h2.43c0-.56.09-1.52.19-2.71s.2-2.59.23-4.04c.06-2.16-.04-4.43-.5-6.15s-1.27-2.91-2.63-2.91c-2.04,0-3.89,1.63-5.23,3.35s-2.17,3.55-2.17,3.93c-.06,1.95-.06,3.41-.04,4.52s.07,1.9.1,2.52l.06.59.06.59.15.15.15.15h3.32c.15,0,.34.21.5.43s.27.46.27.52c0,.53-.38.83-1.07.99s-1.68.19-2.89.19h-.89c-.27,0-.53.01-.8.03s-.53.03-.8.03c-1.07,0-2.18-.06-3.02-.24s-1.42-.5-1.42-1c0-.24.09-.52.24-.74s.38-.39.64-.39h3.73s-.01-3.61-.03-7.29-.03-7.42-.03-7.69c0-.12-.3-.27-.67-.38s-.84-.21-1.16-.21c-.47,0-.64.06-.79.12s-.3.12-.75.12c-.5,0-.95-.06-1.27-.24s-.51-.5-.51-1c.03-.36.22-.55.53-.65s.72-.12,1.19-.12h1.12c.77,0,1.88-.01,2.79.1s1.62.35,1.59.85l-.03,1.95-.03,1.95c.89-1.15,1.88-2.37,3.03-3.29s2.47-1.56,4.01-1.56c1.75,0,2.71.55,3.42,1.43s1.17,2.09,1.91,3.43c.77-1.42,1.6-2.64,2.63-3.49s2.26-1.36,3.83-1.36c2.93,0,4.51,1.89,5.36,4.41s.95,5.65.92,8.14c-.03.5-.06.98-.08,1.44s-.04.93-.04,1.4l-.03,1.01-.03,1.01c.62,0,1.78.06,2.78.23s1.84.45,1.84.9c0,.27-.12.52-.3.7s-.41.3-.65.3h-8.88Z"/>
            <path class="cls-3" d="M376.26,129.96c.89-2.19,1.98-4.22,3.52-5.7s3.52-2.41,6.19-2.41c1.69,0,3.85.4,5.59,1.34s3.06,2.42,3.06,4.58c0,.53-.58.99-1.25,1.33s-1.44.56-1.83.62c-2.69.3-4.53.5-6.41.64s-3.8.19-6.68.19c0,2.37.64,4.78,1.95,6.6s3.29,3.05,5.99,3.05c1.57,0,3.18-.8,4.58-1.6s2.58-1.6,3.29-1.6c.38,0,.68.06.88.21s.3.41.3.79c0,1.51-1.67,2.56-3.6,3.23s-4.1.97-5.11.97c-2.96,0-5.58-1.18-7.46-3.1s-3.02-4.57-3.02-7.5v-1.66ZM378.87,128.71c.3,0,1.17-.06,2.05-.12s1.77-.12,2.09-.12c1.48,0,3.11-.03,4.71-.18s3.19-.41,4.58-.89v-.18c0-1.39-1.04-2.31-2.32-2.88s-2.83-.79-3.83-.79c-1.1,0-2.77.64-4.24,1.6s-2.75,2.25-3.04,3.55Z"/>
            <path class="cls-3" d="M404,124.45c-.03.36-.13.78-.23,1.74s-.19,2.43-.19,4.89c0,2.28.19,4.71.95,6.56s2.07,3.15,4.32,3.15c2.78,0,3.23-1.75,3.31-3.49s-.2-3.49,1.13-3.49c.3,0,.67.04.96.18s.52.35.52.71c0,2.07-.22,4.04-1.07,5.49s-2.33,2.38-4.85,2.38c-3.2,0-5.09-1.41-6.19-3.52s-1.39-4.92-1.39-7.73c0-1.57.09-2.8.18-3.88s.18-2.04.18-3.04c-.21,0-.61-.03-1.1-.06s-1.07-.06-1.63-.06c-.65,0-1.27-.06-1.73-.25s-.76-.52-.76-1.05c0-.42.89-.62,1.95-.73s2.31-.1,3.02-.1c.65,0,.89-.36.98-1.81s.05-4.02.14-8.43c0-.18.19-.36.43-.49s.52-.22.7-.22.49.09.75.24.49.38.49.64c-.21,4.29-.38,6.54-.51,7.87s-.2,1.72-.2,2.32c.44.09,1.14.15,1.96.19s1.77.05,2.72.05c1.1,0,1.91-.01,2.56-.03s1.14-.03,1.58-.03c.27.12.4.25.47.41s.07.33.07.54c0,.27-.09.47-.25.61s-.4.21-.7.21h-8.41l-.09.12-.09.12Z"/>
            <path class="cls-3" d="M430.3,138.78c-.83.74-1.92,1.48-3.15,2.04s-2.57.93-3.9.93-2.72-.21-3.83-.86-1.88-1.75-1.79-3.52c.06-2.1.96-3.42,2.26-4.21s2.98-1.06,4.61-1.06c.98,0,1.98.09,2.97.23s1.95.33,2.83.54c.3-2.52-.13-4.75-1.14-6.36s-2.59-2.58-4.6-2.58c-1.72,0-2.58.87-3.18,1.75s-.94,1.75-1.62,1.75c-.3,0-.55-.16-.72-.4s-.26-.55-.23-.84c.06-1.54.77-2.56,1.78-3.2s2.33-.89,3.6-.89c6.36,0,7.98,4.44,8.33,8.88s-.57,8.88.73,8.88c.62,0,.95-.44,1.2-.89s.43-.89.76-.89c.18,0,.37.04.54.11s.32.16.41.24c-.06.83-.18,1.69-.52,2.34s-.9,1.09-1.85,1.09c-.8,0-1.61-.19-2.26-.61s-1.12-1.07-1.24-1.99v-.47ZM423.43,139.67c1.39,0,3.23-.44,4.66-1.25s2.47-1.98,2.26-3.43c-.71-.27-1.61-.53-2.6-.73s-2.05-.33-3.09-.33c-1.15,0-2.26.16-3.12.64s-1.44,1.26-1.56,2.5c-.06,1.1.36,1.75,1.01,2.12s1.54.48,2.43.48Z"/>
            <path class="cls-3" d="M459.96,139.25c.09-.09.18-.13.27-.16s.18-.02.27-.02c.27,0,.49.09.64.24s.24.38.24.64c0,.59-.36.99-.82,1.24s-1.04.35-1.49.35c-.89,0-1.45-.04-2.02-.09s-1.15-.09-2.06-.09c0,0-.18-.13-.36-.31s-.36-.4-.36-.58v-2.31c-.53,1.01-1.33,1.91-2.39,2.56s-2.38,1.05-3.94,1.05c-2.37,0-4.84-.84-6.72-2.36s-3.17-3.71-3.17-6.4c0-3.49,1.32-6.07,3.32-7.77s4.68-2.53,7.4-2.53c.8,0,1.64.03,2.46.15s1.6.33,2.28.68c.3-3.46.24-5.07.1-6.73s-.34-3.35-.34-6.99c0-.41,0-.83,0-1.24s-.02-.83-.05-1.24c0-.06.09-.19.18-.33s.18-.29.18-.38c-1.18-.5-2.83-.25-4.17-.04s-2.4.37-2.4-.31c0-.27.13-.56.31-.79s.4-.39.58-.39.31,0,.42.02.2.07.29.15l3.05-.3,3.05-.3c.44.09.7.27.84.51s.17.55.17.91c0,.27,0,.44-.04.61s-.11.31-.26.52c.03.35.04.7.05,1.04s0,.68,0,1.04c0,2.99-.12,3.03-.06,5.58s.3,7.61,1.01,20.63c0,.18-.01.44-.03.75s-.03.64-.03.97c0,.53.04,1.04.21,1.41s.47.61.97.61h2.43ZM453.68,125.93c-.77-.27-1.38-.62-2.06-.91s-1.44-.51-2.5-.51c-2.78,0-4.91.64-6.35,2.02s-2.18,3.52-2.18,6.51c0,2.34,1.21,4,2.73,5.07s3.34,1.56,4.55,1.56c1.92,0,3.63-1.15,4.78-2.57s1.76-3.09,1.49-4.12l-.24-3.52-.24-3.52Z"/>
            <path class="cls-3" d="M476.78,138.78c-.83.74-1.92,1.48-3.15,2.04s-2.57.93-3.9.93-2.72-.21-3.83-.86-1.88-1.75-1.79-3.52c.06-2.1.96-3.42,2.26-4.21s2.98-1.06,4.61-1.06c.98,0,1.98.09,2.97.23s1.95.33,2.83.54c.3-2.52-.13-4.75-1.14-6.36s-2.59-2.58-4.6-2.58c-1.72,0-2.58.87-3.18,1.75s-.94,1.75-1.62,1.75c-.3,0-.55-.16-.72-.4s-.26-.55-.23-.84c.06-1.54.77-2.56,1.78-3.2s2.33-.89,3.6-.89c6.36,0,7.98,4.44,8.33,8.88s-.57,8.88.73,8.88c.62,0,.95-.44,1.2-.89s.43-.89.76-.89c.18,0,.37.04.54.11s.32.16.41.24c-.06.83-.18,1.69-.52,2.34s-.9,1.09-1.85,1.09c-.8,0-1.61-.19-2.26-.61s-1.12-1.07-1.24-1.99v-.47ZM469.91,139.67c1.39,0,3.23-.44,4.66-1.25s2.47-1.98,2.26-3.43c-.71-.27-1.61-.53-2.6-.73s-2.05-.33-3.09-.33c-1.15,0-2.26.16-3.12.64s-1.44,1.26-1.56,2.5c-.06,1.1.36,1.75,1.01,2.12s1.54.48,2.43.48Z"/>
            <path class="cls-3" d="M490.52,124.45c-.03.36-.13.78-.23,1.74s-.19,2.43-.19,4.89c0,2.28.19,4.71.95,6.56s2.07,3.15,4.32,3.15c2.78,0,3.23-1.75,3.31-3.49s-.2-3.49,1.13-3.49c.3,0,.67.04.96.18s.52.35.52.71c0,2.07-.22,4.04-1.07,5.49s-2.33,2.38-4.85,2.38c-3.2,0-5.09-1.41-6.19-3.52s-1.39-4.92-1.39-7.73c0-1.57.09-2.8.18-3.88s.18-2.04.18-3.04c-.21,0-.61-.03-1.1-.06s-1.07-.06-1.63-.06c-.65,0-1.27-.06-1.73-.25s-.76-.52-.76-1.05c0-.42.89-.62,1.95-.73s2.31-.1,3.02-.1c.65,0,.89-.36.98-1.81s.05-4.02.14-8.43c0-.18.19-.36.43-.49s.52-.22.7-.22.49.09.75.24.49.38.49.64c-.21,4.29-.38,6.54-.51,7.87s-.2,1.72-.2,2.32c.44.09,1.14.15,1.96.19s1.77.05,2.72.05c1.1,0,1.91-.01,2.56-.03s1.14-.03,1.58-.03c.27.12.4.25.47.41s.07.33.07.54c0,.27-.09.47-.25.61s-.4.21-.7.21h-8.41l-.09.12-.09.12Z"/>
            <path class="cls-3" d="M516.81,138.78c-.83.74-1.92,1.48-3.15,2.04s-2.57.93-3.9.93-2.72-.21-3.83-.86-1.88-1.75-1.79-3.52c.06-2.1.96-3.42,2.26-4.21s2.98-1.06,4.61-1.06c.98,0,1.98.09,2.97.23s1.95.33,2.83.54c.3-2.52-.13-4.75-1.14-6.36s-2.59-2.58-4.6-2.58c-1.72,0-2.58.87-3.18,1.75s-.94,1.75-1.62,1.75c-.3,0-.55-.16-.72-.4s-.26-.55-.23-.84c.06-1.54.77-2.56,1.78-3.2s2.33-.89,3.6-.89c6.36,0,7.98,4.44,8.33,8.88s-.57,8.88.73,8.88c.62,0,.95-.44,1.2-.89s.43-.89.76-.89c.18,0,.37.04.54.11s.32.16.41.24c-.06.83-.18,1.69-.52,2.34s-.9,1.09-1.85,1.09c-.8,0-1.61-.19-2.26-.61s-1.12-1.07-1.24-1.99v-.47ZM509.94,139.67c1.39,0,3.23-.44,4.66-1.25s2.47-1.98,2.26-3.43c-.71-.27-1.61-.53-2.6-.73s-2.05-.33-3.09-.33c-1.15,0-2.26.16-3.12.64s-1.44,1.26-1.56,2.5c-.06,1.1.36,1.75,1.01,2.12s1.54.48,2.43.48Z"/>
            <path class="cls-3" d="M550.94,137.59c-.56.56-1.35,1.36-1.99,2.12s-1.15,1.49-1.15,1.9c0,.83,3.98,1.38,7.96,2.86s7.96,3.89,7.96,8.45c0,2.28-1.21,4.44-3.33,6.03s-5.14,2.61-8.75,2.61c-3.4,0-5.85-.84-7.44-2.12s-2.33-2.98-2.33-4.69c0-1.95,1.14-3.46,2.42-4.48s2.7-1.55,3.26-1.55c.21,0,.59.07.87.3s.44.61.2,1.24c-.15.38-1.29.64-2.39,1.22s-2.17,1.5-2.17,3.22c0,1.01.78,2.22,2.21,3.18s3.5,1.67,6.08,1.67c2.22,0,4.46-.86,6.14-2.1s2.8-2.87,2.8-4.41c0-3.94-4.04-5.64-8.08-6.85s-8.08-1.92-8.08-3.87c0-.98.56-1.91,1.34-2.79s1.77-1.71,2.63-2.48c-1.54-.92-2.78-1.9-3.64-3.03s-1.33-2.42-1.33-3.96c0-2.28.84-4.4,2.24-5.94s3.35-2.52,5.57-2.52c.3,0,1.01.03,1.8.1s1.66.19,2.29.37c.74-1.98,1.79-3.31,2.91-4.15s2.3-1.18,3.31-1.18c.68,0,1.33.19,1.81.55s.79.87.79,1.52c0,.38-.13.7-.32.91s-.42.33-.63.33c-.27,0-.62-.19-1.01-.38s-.82-.38-1.24-.38c-.71,0-1.39.12-2.02.64s-1.21,1.44-1.71,3.03c.8.41,1.79,1.32,2.58,2.4s1.38,2.34,1.38,3.46c0,2.9-1.36,5.12-3.37,6.62s-4.66,2.26-7.23,2.26l-.18-.06-.18-.06ZM552.95,135.58c1.78,0,3.37-.74,4.53-1.92s1.87-2.79,1.87-4.54c0-1.89-.81-3.32-2.13-4.26s-3.14-1.42-5.15-1.42c-1.69,0-3.18.84-4.26,2.12s-1.72,2.98-1.72,4.69,1.07,3.05,2.46,3.95,3.11,1.38,4.41,1.38Z"/>
            <path class="cls-3" d="M565.6,129.96c.89-2.19,1.98-4.22,3.52-5.7s3.52-2.41,6.19-2.41c1.69,0,3.85.4,5.59,1.34s3.06,2.42,3.06,4.58c0,.53-.58.99-1.25,1.33s-1.44.56-1.83.62c-2.69.3-4.53.5-6.41.64s-3.8.19-6.68.19c0,2.37.64,4.78,1.95,6.6s3.29,3.05,5.99,3.05c1.57,0,3.18-.8,4.58-1.6s2.58-1.6,3.29-1.6c.38,0,.68.06.88.21s.3.41.3.79c0,1.51-1.67,2.56-3.6,3.23s-4.1.97-5.11.97c-2.96,0-5.58-1.18-7.46-3.1s-3.02-4.57-3.02-7.5v-1.66ZM568.2,128.71c.3,0,1.17-.06,2.05-.12s1.77-.12,2.09-.12c1.48,0,3.11-.03,4.71-.18s3.19-.41,4.58-.89v-.18c0-1.39-1.04-2.31-2.32-2.88s-2.83-.79-3.83-.79c-1.1,0-2.77.64-4.24,1.6s-2.75,2.25-3.04,3.55Z"/>
            <path class="cls-3" d="M612.2,139.43c.18,0,.31.19.4.42s.13.5.13.64c-.03.36-.33.59-.68.76s-.77.27-1.04.36c-1.72,0-2.83.06-3.94.12s-2.22.12-3.94.12c-.27,0-.49-.13-.64-.33s-.22-.47-.19-.73c.03-.83.8-1.14,1.65-1.24s1.78,0,2.14,0c.09-2.04.5-6.01.03-9.47s-1.84-6.4-5.3-6.4c-1.63,0-3.17.86-4.31,2.12s-1.9,2.92-1.96,4.52c-.03.98.07,2.47.17,4.02s.18,3.15.13,4.33c0,.21,0,.38,0,.55s-.02.31-.05.46c.53.21,1.04.07,1.54-.11s1.01-.42,1.54-.42c.36,0,.56.19.68.46s.15.61.15.9c-.03.65-.5.96-1.24,1.11s-1.72.13-2.79.13h-4.44c-.8,0-1.3-.07-1.6-.27s-.38-.5-.35-.98c.06-.77.84-.95,1.76-.98s1.97.09,2.56-.09l-.03-7.49-.03-7.49h-3.61c-.53,0-.87-.13-1.08-.38s-.28-.62-.28-1.09c.03-.15.04-.33.14-.47s.27-.24.63-.24h5.51c.12,0,.38.13.62.32s.44.42.44.63l-.15.98-.15.98c.95-1.01,1.79-1.87,2.73-2.47s1.98-.96,3.31-.96c4.35,0,6.41,2.71,7.35,6.27s.76,7.97.64,11.38l.09.09.09.09,1.69-.06,1.69-.06Z"/>
            <path class="cls-3" d="M614.69,129.96c.89-2.19,1.98-4.22,3.52-5.7s3.52-2.41,6.19-2.41c1.69,0,3.85.4,5.59,1.34s3.06,2.42,3.06,4.58c0,.53-.58.99-1.25,1.33s-1.44.56-1.83.62c-2.69.3-4.53.5-6.41.64s-3.8.19-6.68.19c0,2.37.64,4.78,1.95,6.6s3.29,3.05,5.99,3.05c1.57,0,3.18-.8,4.58-1.6s2.58-1.6,3.29-1.6c.38,0,.68.06.88.21s.3.41.3.79c0,1.51-1.67,2.56-3.6,3.23s-4.1.97-5.11.97c-2.96,0-5.58-1.18-7.46-3.1s-3.02-4.57-3.02-7.5v-1.66ZM617.29,128.71c.3,0,1.17-.06,2.05-.12s1.77-.12,2.09-.12c1.48,0,3.11-.03,4.71-.18s3.19-.41,4.58-.89v-.18c0-1.39-1.04-2.31-2.32-2.88s-2.83-.79-3.83-.79c-1.1,0-2.77.64-4.24,1.6s-2.75,2.25-3.04,3.55Z"/>
            <path class="cls-3" d="M651.7,139.72c.18,0,.53.13.84.33s.58.47.58.73c0,.36-.13.5-.33.59s-.47.1-.73.18c-2.16.12-3.91.21-5.65.27s-3.49.09-5.65.09h-1.6c-.27-.18-.46-.24-.58-.32s-.19-.18-.19-.45c0-.3.1-.52.27-.7s.41-.31.67-.43c.62,0,1.15-.04,1.72-.1s1.15-.13,1.89-.19v-.59c0-2.52-.06-4.96-.12-7.42s-.12-4.95-.12-7.56c-.71,0-.98.04-1.24.09s-.53.09-1.24.09c-.53,0-1.21.04-1.76-.09s-.96-.44-.96-1.15c0-.27,0-.46.09-.61s.27-.25.62-.34c1.1,0,1.73-.03,2.37-.06s1.27-.06,2.37-.06c.33,0,.9.18,1.4.46s.91.67.91,1.08c0,.65-.09,1.14-.18,1.64s-.18,1.02-.18,1.73c.38-.38,1.08-1.69,2.23-2.89s2.75-2.32,4.94-2.32c.71,0,1.88.24,2.87.72s1.81,1.21,1.81,2.18c0,.89-.4,1.79-1.03,2.47s-1.49,1.14-2.41,1.14c-.36,0-.46-.22-.47-.55s.06-.78.06-1.22c1.36-.24,1.64-1.04,1.31-1.76s-1.28-1.38-2.38-1.32c-2.37.12-3.97,1.79-5.07,3.45s-1.71,3.3-2.09,3.36c0,.41.06,2.56.13,4.72s.16,4.34.22,4.81h6.69Z"/>
            <path class="cls-3" d="M671.41,138.78c-.83.74-1.92,1.48-3.15,2.04s-2.57.93-3.9.93-2.72-.21-3.83-.86-1.88-1.75-1.79-3.52c.06-2.1.96-3.42,2.26-4.21s2.98-1.06,4.61-1.06c.98,0,1.98.09,2.97.23s1.95.33,2.83.54c.3-2.52-.13-4.75-1.14-6.36s-2.59-2.58-4.6-2.58c-1.72,0-2.58.87-3.18,1.75s-.94,1.75-1.62,1.75c-.3,0-.55-.16-.72-.4s-.26-.55-.23-.84c.06-1.54.77-2.56,1.78-3.2s2.33-.89,3.6-.89c6.36,0,7.98,4.44,8.33,8.88s-.57,8.88.73,8.88c.62,0,.95-.44,1.2-.89s.43-.89.76-.89c.18,0,.37.04.54.11s.32.16.41.24c-.06.83-.18,1.69-.52,2.34s-.9,1.09-1.85,1.09c-.8,0-1.61-.19-2.26-.61s-1.12-1.07-1.24-1.99v-.47ZM664.55,139.67c1.39,0,3.23-.44,4.66-1.25s2.47-1.98,2.26-3.43c-.71-.27-1.61-.53-2.6-.73s-2.05-.33-3.09-.33c-1.15,0-2.26.16-3.12.64s-1.44,1.26-1.56,2.5c-.06,1.1.36,1.75,1.01,2.12s1.54.48,2.43.48Z"/>
            <path class="cls-3" d="M685.15,124.45c-.03.36-.13.78-.23,1.74s-.19,2.43-.19,4.89c0,2.28.19,4.71.95,6.56s2.07,3.15,4.32,3.15c2.78,0,3.23-1.75,3.31-3.49s-.2-3.49,1.13-3.49c.3,0,.67.04.96.18s.52.35.52.71c0,2.07-.22,4.04-1.07,5.49s-2.33,2.38-4.85,2.38c-3.2,0-5.09-1.41-6.19-3.52s-1.39-4.92-1.39-7.73c0-1.57.09-2.8.18-3.88s.18-2.04.18-3.04c-.21,0-.61-.03-1.1-.06s-1.07-.06-1.63-.06c-.65,0-1.27-.06-1.73-.25s-.76-.52-.76-1.05c0-.42.89-.62,1.95-.73s2.31-.1,3.02-.1c.65,0,.89-.36.98-1.81s.05-4.02.14-8.43c0-.18.19-.36.43-.49s.52-.22.7-.22.49.09.75.24.49.38.49.64c-.21,4.29-.38,6.54-.51,7.87s-.2,1.72-.2,2.32c.44.09,1.14.15,1.96.19s1.77.05,2.72.05c1.1,0,1.91-.01,2.56-.03s1.14-.03,1.58-.03c.27.12.4.25.47.41s.07.33.07.54c0,.27-.09.47-.25.61s-.4.21-.7.21h-8.41l-.09.12-.09.12Z"/>
            <path class="cls-3" d="M711.5,122.02c2.37,0,4.66,1.27,6.36,3.19s2.81,4.48,2.81,7.05c0,3.2-1.42,5.64-3.49,7.28s-4.8,2.49-7.4,2.49c-2.75,0-5.51-1.17-7.57-3.12s-3.44-4.67-3.44-7.78c0-3.79,1.81-6.07,4.3-7.4s5.68-1.72,8.43-1.72ZM710.5,139.96c2.01,0,3.95-.75,5.39-2.09s2.37-3.26,2.37-5.6c0-1.87-.53-3.39-1.45-4.66s-2.22-2.27-3.76-3.1h-.12c-.33,0-.46.47-.64.95s-.42.95-.95.95c-.41,0-.56-.47-.83-.95s-.65-.95-1.54-.95c-.21,0-.4.07-.63.15s-.5.15-.85.15c-.21,0-.43-.13-.62-.27s-.36-.27-.44-.27c-1.51,0-2.8.95-3.71,2.25s-1.44,2.96-1.44,4.38c0,2.78,1.08,5.05,2.78,6.62s4,2.44,6.46,2.44Z"/>
            <path class="cls-3" d="M737,139.72c.18,0,.53.13.84.33s.58.47.58.73c0,.36-.13.5-.33.59s-.47.1-.73.18c-2.16.12-3.91.21-5.65.27s-3.49.09-5.65.09h-1.6c-.27-.18-.46-.24-.58-.32s-.19-.18-.19-.45c0-.3.1-.52.27-.7s.41-.31.67-.43c.62,0,1.15-.04,1.72-.1s1.15-.13,1.89-.19v-.59c0-2.52-.06-4.96-.12-7.42s-.12-4.95-.12-7.56c-.71,0-.98.04-1.24.09s-.53.09-1.24.09c-.53,0-1.21.04-1.76-.09s-.96-.44-.96-1.15c0-.27,0-.46.09-.61s.27-.25.62-.34c1.1,0,1.73-.03,2.37-.06s1.27-.06,2.37-.06c.33,0,.9.18,1.4.46s.91.67.91,1.08c0,.65-.09,1.14-.18,1.64s-.18,1.02-.18,1.73c.38-.38,1.08-1.69,2.23-2.89s2.75-2.32,4.94-2.32c.71,0,1.88.24,2.87.72s1.81,1.21,1.81,2.18c0,.89-.4,1.79-1.03,2.47s-1.49,1.14-2.41,1.14c-.36,0-.46-.22-.47-.55s.06-.78.06-1.22c1.36-.24,1.64-1.04,1.31-1.76s-1.28-1.38-2.38-1.32c-2.37.12-3.97,1.79-5.07,3.45s-1.71,3.3-2.09,3.36c0,.41.06,2.56.13,4.72s.16,4.34.22,4.81h6.69Z"/>
          </g>
        </g>
        <g>
          <path class="cls-3" d="M100.1,40.63c4.83.96,10.25,3.7,14.21,7.57s6.44,8.86,5.39,14.34c-.54,2.17-2.09,4.14-3.92,6.02s-3.94,3.64-5.61,5.38c-1.07,1.17-2.92,2.74-4.38,4.37s-2.54,3.3-2.05,4.68c.28.82.87,1.55,1.61,2.08s1.63.88,2.5.95c2.31.17,4.85-2.15,7.33-4.8s4.91-5.61,6.98-6.72c3.15-1.85,5.53-.57,7.39,1.74s3.2,5.63,4.28,7.86c.91,1.98,1.79,3.98,2.66,5.99s1.72,4.03,2.56,6.04c1.58,3.84,3.23,7.6,4.92,11.35s3.41,7.48,5.13,11.27c1.63,3.84,3.66,7.94,5.03,12.15s2.06,8.52,1.04,12.78c-1.2,5.24-4.81,8.83-9.3,10.62-4.49,1.8-9.84,1.8-14.53-.11-1.87-.84-5.27-2.36-9.2-4.13s-8.37-3.76-12.31-5.53c-1.97-.89-3.81-1.71-5.4-2.42s-2.92-1.31-3.87-1.74c-.75-.29-1.43-.73-1.93-1.31s-.84-1.3-.91-2.16c-.16-.97.07-2.01.52-2.98s1.14-1.87,1.88-2.57c1.66-1.71,3.86-3.64,5.62-5.58s3.1-3.91,3.03-5.7c0-.99-.46-1.88-1.17-2.52s-1.65-1.03-2.62-1.01c-1.87.1-3.43,1.17-4.85,2.53s-2.72,3.02-4.07,4.31c-1.31,1.37-2.62,2.79-4,4.1s-2.86,2.51-4.51,3.44c-1.79,1.01-3.67,1.14-5.6.82s-3.89-1.1-5.85-1.92c-2.45-1.03-4.92-2.19-7.38-3.39s-4.92-2.45-7.33-3.64c-2.74-1.26-4.59-3.06-5.26-5.16s-.17-4.52,1.81-7c1.63-2.04,3.71-3.97,5.81-5.89s4.24-3.82,5.98-5.83c1.22-1.25,2.02-2.97,2.03-4.51s-.78-2.9-2.73-3.41c-1.08-.28-2.24-.03-3.35.51s-2.15,1.35-2.98,2.19c-1.67,1.62-3.37,3.52-5.07,5.37s-3.41,3.63-5.11,5c-2.34,1.95-4.62,2.61-6.57,2.04s-3.55-2.37-4.54-5.33c-3.71-10.25-.87-18.5,4.53-25.85s13.34-13.79,19.83-20.43c4.65-5.96,9.44-10.21,14.95-12.59s11.73-2.88,19.25-1.32h.06s.06.03.06.03Z"/>
          <g>
            <path class="cls-2" d="M42.29,16.36c-1-1.56-2.15-3.05-3.49-4.32s-2.89-2.31-4.68-2.97c-3.67-1.65-7.81-1.94-11.68-1.08s-7.48,2.89-10.1,5.87l-.04.05-.04.05c-2.67,3.16-4.24,7.24-4.54,11.39s.69,8.34,3.14,11.73c1.14,1.68,2.5,2.95,4.01,4.06s3.17,2.04,4.9,3.04c3.12,1.78,6.93,3.79,10.58,5.62s7.17,3.47,9.72,4.52c1.07.44,2.14.81,3.24,1.07s2.23.41,3.43.41c2.63.09,4.92-.8,6.55-2.36s2.6-3.82,2.59-6.47c.02-1.53-.22-3.04-.62-4.51s-.95-2.91-1.55-4.3c-1.57-3.49-3.32-7.36-5.23-11.15s-3.98-7.49-6.2-10.65Z"/>
            <path class="cls-2" d="M75.56,11.3c-.51-3.77-2.55-6.88-5.37-8.88S63.78-.46,60.14.23c-3.48.46-6.65,2.43-8.69,5.16s-2.95,6.22-1.92,9.71c.59,2.07,1.37,4.17,2.23,6.25s1.81,4.14,2.74,6.12c.78,1.53,1.49,3.11,2.3,4.58s1.72,2.81,2.87,3.87c1.73,1.72,3.89,2.09,5.88,1.55s3.81-2.02,4.85-3.99c.97-1.93,1.83-4.47,2.54-7.05s1.27-5.19,1.64-7.24v-.05s.02-.05.02-.05c.21-1.31.55-2.55.78-3.81s.37-2.55.17-3.95Z"/>
            <path class="cls-2" d="M30.02,55.24c-1.79-.88-3.79-1.84-5.8-2.73s-4.01-1.73-5.82-2.37c-3.54-1.41-7.29-1.39-10.48-.09s-5.83,3.87-7.14,7.56c-1.55,3.95-.66,8.43,1.69,11.88s6.16,5.85,10.46,5.64h.06s.06,0,.06,0c1.69-.14,3.27-.38,4.88-.67s3.23-.62,5.01-.95c2.4-.63,5.09-1.11,7.57-1.93s4.74-1.98,6.31-3.95c.68-.92,1.03-2.07,1.09-3.26s-.17-2.42-.69-3.49c-.68-1.46-1.8-2.52-3.09-3.39s-2.74-1.55-4.1-2.25Z"/>
          </g>
        </g>
      </g>
      <path class="cls-2" d="M812.82,45.55c-2.04.59-4.67.79-7.55.86s-6,0-9.04.03c-5.5,0-11.94,0-18.11,0s-12.07,0-16.46,0c-3.82.07-7.68.01-11.19-.95s-6.66-2.85-9.07-6.42c-2.99-4.72-4.09-10.96-3.17-16.69s3.89-10.94,9.03-13.61c2.23-1.15,4.48-1.67,6.8-1.91s4.73-.21,7.27-.24c1.38,0,2.9,0,4.54,0s3.38,0,5.23,0c4.18,0,8.47,0,12.76,0s8.59,0,12.79,0c3.1.03,6.28-.05,9.21.05s5.63.36,7.75,1.09c3.26,1.02,5.94,3.1,7.9,5.76s3.19,5.91,3.56,9.25c.72,4.73.1,9.79-1.91,13.98s-5.4,7.51-10.21,8.79l-.06.02-.06.02Z"/>
      <g>
        <path class="cls-1" d="M758.78,18.12c0-.46,0-.83-.02-1.15s-.02-.6-.02-.87h-.44c-.17,0-.39,0-.61,0s-.46-.03-.64-.06c-.33,0-.8-.06-1.17-.27s-.63-.58-.56-1.21c.02-.2.1-.42.26-.62s.39-.37.7-.48c.29.06.59.08.89.1s.6.01.92.01c.33,0,.69,0,1.04,0s.69.01.98.03c.28.04.64.16.93.38s.49.56.43,1.02c0,.09,0,.2-.02.31s-.02.22-.02.31c-.02.11-.04.21-.05.3s-.02.16-.02.22c-.02.74-.05,1.44-.08,2.1s-.07,1.3-.11,1.91c-.06.83-.1,1.61-.13,2.39s-.05,1.55-.05,2.36c0,.63,0,.14,0-.32s.02-.89.08-.16c.33-.33.66-.57,1-.73s.68-.23,1.03-.23c.2,0,.39,0,.57.02s.37.03.57.05c1.66.17,3,.98,3.9,2.14s1.35,2.7,1.22,4.3c-.26,1.97-1.31,3.6-2.79,4.69s-3.41,1.64-5.41,1.46h-.15c-.86-.04-1.46-.13-1.86-.41s-.6-.76-.68-1.57l.17-8,.17-8ZM761.1,27.02l.02,3.28.02,3.28h.04c1.47.18,2.82-.09,3.83-.79s1.69-1.81,1.84-3.3c.07-.86-.17-1.68-.66-2.31s-1.21-1.06-2.1-1.15h.04c-.4-.04-1.09-.05-1.7.05s-1.15.29-1.28.65c0,.04,0,.09-.02.15s-.02.11-.02.15Z"/>
        <path class="cls-1" d="M770.78,28.39c.57-1.38,1.26-2.66,2.25-3.59s2.28-1.52,4.04-1.52c1.1,0,2.51.27,3.64.91s1.99,1.67,1.99,3.17c0,.5-.45.92-.97,1.23s-1.11.52-1.38.57c-1.42.15-2.45.26-3.47.34s-2.03.12-3.41.14c.07,1.1.43,2.15,1.07,2.93s1.56,1.27,2.76,1.27c.85,0,1.59-.46,2.32-.92s1.44-.92,2.21-.92c.44,0,.78.07,1.01.27s.35.51.35.98c0,1.1-1.09,1.88-2.34,2.37s-2.67.72-3.33.72c-1.9,0-3.58-.75-4.79-1.98s-1.95-2.92-1.95-4.79v-1.18ZM773.87,27.5c.24-.02.49-.04.7-.05s.39-.02.48-.02c.74,0,1.59-.04,2.44-.13s1.7-.24,2.42-.46c-.2-.37-.55-.68-1.02-.9s-1.04-.35-1.71-.35c-.79,0-1.55.24-2.15.6s-1.03.84-1.16,1.32Z"/>
        <path class="cls-1" d="M789.96,25.99c-.04.26-.08.62-.12,1.14s-.06,1.21-.06,2.13c0,1.14.08,2.36.42,3.3s.92,1.59,1.94,1.59c1.21,0,1.21-1,1.23-2.01s.04-2.01,1.31-2.01c.31,0,.7.06,1.01.23s.54.47.54.95c0,1.38-.16,2.69-.75,3.65s-1.61,1.58-3.34,1.58c-2.13,0-3.4-.9-4.12-2.25s-.92-3.14-.92-4.93c0-.75.04-1.38.07-1.92s.07-1,.07-1.43c-.63,0-1.36.02-1.94-.15s-1-.53-1-1.28c0-.59.62-.88,1.36-1.03s1.62-.15,2.13-.15c-.06,0-.08-.8-.09-1.68s0-1.85.02-2.18c0-.61.05-1.21.24-1.67s.55-.76,1.15-.76c.2,0,.55.12.85.33s.55.52.55.88c-.07,1.66-.14,2.79-.19,3.59s-.1,1.27-.14,1.6v.07c.46.04,1.16.04,1.95.03s1.66-.03,2.47-.03c.44.2.66.39.77.58s.11.4.11.64c0,.39-.11.68-.32.88s-.51.3-.9.3h-4.31Z"/>
        <path class="cls-1" d="M805.09,34.42c-.41.5-.98.91-1.62,1.2s-1.34.46-1.98.46c-.88,0-1.9-.16-2.69-.64s-1.33-1.29-1.25-2.6c.04-1.47.64-2.39,1.52-2.94s2.01-.74,3.12-.74c.44,0,.79.03,1.14.07s.7.11,1.14.18c0-1.05-.16-1.95-.52-2.59s-.92-1.02-1.73-1.02c-.42,0-.72.15-.94.35s-.38.46-.53.68c-.17.28-.3.52-.49.7s-.43.29-.8.29-.69-.19-.91-.47-.34-.64-.3-.97c.04-1.12.52-1.88,1.23-2.35s1.62-.67,2.53-.67c2.47,0,3.76.9,4.44,2.21s.75,3.02.75,4.64c0,1.01-.09,1.86-.11,2.45s.04.93.33.93c.18,0,.39-.24.6-.48s.45-.48.69-.48c.18,0,.3.04.4.1s.17.14.26.23c.06.05.11.16.15.26s.07.2.07.26c-.05.64-.16,1.31-.45,1.81s-.78.84-1.61.84c-.48,0-1.01-.17-1.46-.46s-.82-.73-.97-1.27ZM800.34,32.62c-.02.44.15.7.4.85s.61.18.96.18c.64,0,1.3-.19,1.83-.54s.93-.84,1.08-1.45c-.39-.17-.67-.31-.98-.42s-.65-.17-1.15-.17c-.53,0-1.05.08-1.44.32s-.66.62-.69,1.23Z"/>
      </g>
    </g>
  </g>
</svg>