<?xml version="1.0" encoding="UTF-8"?>
<svg id="Layer_2" data-name="Layer 2" xmlns="http://www.w3.org/2000/svg" xmlns:xlink="http://www.w3.org/1999/xlink" viewBox="0 0 520.67 106.37">
  <defs>
    <style>
      .cls-1 {
        fill: url(#linear-gradient-2);
      }

      .cls-2 {
        fill: url(#linear-gradient-10);
      }

      .cls-3 {
        fill: url(#linear-gradient-4);
      }

      .cls-4 {
        fill: url(#linear-gradient-3);
      }

      .cls-5 {
        fill: url(#linear-gradient-5);
      }

      .cls-6 {
        fill: url(#linear-gradient-8);
      }

      .cls-7 {
        fill: #7c3aed;
      }

      .cls-8 {
        fill: url(#linear-gradient-7);
      }

      .cls-9 {
        fill: url(#linear-gradient-9);
      }

      .cls-10 {
        fill: url(#linear-gradient-6);
      }

      .cls-11 {
        fill: url(#linear-gradient);
      }
    </style>
    <linearGradient id="linear-gradient" x1="9.2" y1="8.82" x2="35.33" y2="35.93" gradientUnits="userSpaceOnUse">
      <stop offset="0" stop-color="#4f46e5"/>
      <stop offset="1" stop-color="#7c3aed"/>
    </linearGradient>
    <linearGradient id="linear-gradient-2" x1="25.35" y1="-6.74" x2="51.48" y2="20.36" xlink:href="#linear-gradient"/>
    <linearGradient id="linear-gradient-3" x1="-6.35" y1="23.82" x2="19.78" y2="50.92" xlink:href="#linear-gradient"/>
    <linearGradient id="linear-gradient-4" x1="535.05" y1="16.76" x2="148.41" y2="65.86" xlink:href="#linear-gradient"/>
    <linearGradient id="linear-gradient-5" x1="534.81" y1="14.89" x2="148.17" y2="63.98" xlink:href="#linear-gradient"/>
    <linearGradient id="linear-gradient-6" x1="535.38" y1="19.39" x2="148.74" y2="68.49" xlink:href="#linear-gradient"/>
    <linearGradient id="linear-gradient-7" x1="536.52" y1="28.36" x2="149.88" y2="77.46" xlink:href="#linear-gradient"/>
    <linearGradient id="linear-gradient-8" x1="537.91" y1="39.28" x2="151.27" y2="88.38" xlink:href="#linear-gradient"/>
    <linearGradient id="linear-gradient-9" x1="537.57" y1="36.61" x2="150.93" y2="85.71" xlink:href="#linear-gradient"/>
    <linearGradient id="linear-gradient-10" x1="539.4" y1="51.01" x2="152.76" y2="100.11" xlink:href="#linear-gradient"/>
  </defs>
  <g id="Layer_1-2" data-name="Layer 1">
    <g>
      <g>
        <path class="cls-7" d="M68.41,27.77c3.3.66,7.01,2.53,9.71,5.17,2.7,2.64,4.4,6.06,3.69,9.8-.37,1.48-1.43,2.83-2.68,4.11-1.25,1.28-2.69,2.49-3.83,3.68-.73.8-2,1.88-3,2.99-1,1.11-1.74,2.26-1.4,3.2.19.56.6,1.06,1.1,1.42s1.11.6,1.71.65c1.58.12,3.31-1.47,5.01-3.28s3.35-3.84,4.77-4.59c2.15-1.26,3.78-.39,5.05,1.19,1.27,1.57,2.19,3.84,2.92,5.37.62,1.35,1.22,2.72,1.82,4.1.59,1.37,1.17,2.75,1.75,4.13,1.08,2.62,2.21,5.2,3.36,7.76,1.15,2.56,2.33,5.11,3.51,7.7,1.12,2.63,2.5,5.43,3.43,8.3.93,2.87,1.41,5.82.71,8.74-.82,3.58-3.29,6.03-6.35,7.26-3.07,1.23-6.73,1.23-9.93-.07-1.28-.57-3.6-1.62-6.28-2.82-2.68-1.2-5.72-2.57-8.41-3.78-1.35-.61-2.6-1.17-3.69-1.66-1.08-.49-1.99-.9-2.64-1.19-.52-.2-.98-.5-1.32-.9s-.57-.89-.62-1.47c-.11-.66.05-1.37.36-2.03s.78-1.28,1.28-1.76c1.13-1.17,2.64-2.49,3.84-3.82,1.21-1.33,2.12-2.67,2.07-3.89,0-.68-.32-1.28-.8-1.72s-1.12-.7-1.79-.69c-1.28.07-2.34.8-3.32,1.73s-1.86,2.07-2.78,2.95c-.9.94-1.79,1.91-2.74,2.8-.95.9-1.95,1.72-3.08,2.35-1.22.69-2.51.78-3.82.56s-2.66-.75-4-1.31c-1.67-.7-3.36-1.5-5.05-2.32s-3.36-1.67-5.01-2.49c-1.87-.86-3.14-2.09-3.6-3.53-.46-1.44-.12-3.09,1.24-4.78,1.11-1.4,2.53-2.71,3.97-4.02,1.44-1.31,2.9-2.61,4.09-3.98.84-.85,1.38-2.03,1.38-3.08,0-1.05-.53-1.98-1.87-2.33-.74-.19-1.53-.02-2.29.35-.75.37-1.47.93-2.04,1.5-1.14,1.1-2.3,2.41-3.46,3.67s-2.33,2.48-3.49,3.42c-1.6,1.34-3.16,1.78-4.49,1.39-1.33-.39-2.43-1.62-3.1-3.64-2.54-7.01-.59-12.64,3.09-17.67,3.69-5.02,9.12-9.43,13.55-13.96,3.18-4.07,6.45-6.98,10.21-8.61,3.76-1.63,8.02-1.97,13.15-.9h.04s.04.02.04.02Z"/>
        <path class="cls-11" d="M28.9,11.18c-.68-1.06-1.47-2.08-2.39-2.95-.92-.87-1.97-1.58-3.2-2.03-2.51-1.13-5.34-1.33-7.98-.74-2.65.59-5.11,1.97-6.9,4.01l-.03.03-.03.03c-1.82,2.16-2.9,4.95-3.1,7.78s.47,5.7,2.15,8.02c.78,1.15,1.71,2.02,2.74,2.77s2.17,1.4,3.35,2.08c2.13,1.22,4.73,2.59,7.23,3.84s4.9,2.37,6.65,3.09c.73.3,1.46.55,2.22.73s1.52.28,2.34.28c1.8.06,3.36-.54,4.48-1.61,1.11-1.07,1.78-2.61,1.77-4.42.01-1.05-.15-2.08-.43-3.08-.27-1.01-.65-1.99-1.06-2.94-1.08-2.38-2.27-5.03-3.57-7.62-1.3-2.59-2.72-5.12-4.24-7.28Z"/>
        <path class="cls-1" d="M51.64,7.73c-.35-2.58-1.74-4.7-3.67-6.07-1.93-1.36-4.39-1.97-6.87-1.5-2.38.31-4.55,1.66-5.94,3.53-1.39,1.87-2.02,4.25-1.31,6.63.4,1.42.94,2.85,1.53,4.27s1.24,2.83,1.87,4.18c.53,1.05,1.02,2.13,1.57,3.13s1.17,1.92,1.96,2.65c1.18,1.17,2.66,1.43,4.02,1.06,1.36-.37,2.6-1.38,3.31-2.73.66-1.32,1.25-3.06,1.73-4.82.49-1.76.87-3.55,1.12-4.95v-.04s.01-.04.01-.04c.15-.89.38-1.74.54-2.6.16-.86.25-1.74.12-2.7Z"/>
        <path class="cls-4" d="M20.51,37.75c-1.22-.6-2.59-1.25-3.96-1.87s-2.74-1.18-3.98-1.62c-2.42-.96-4.98-.95-7.16-.06-2.18.89-3.98,2.65-4.88,5.17-1.06,2.7-.45,5.76,1.15,8.12,1.61,2.35,4.21,4,7.15,3.85h.04s.04,0,.04,0c1.16-.1,2.24-.26,3.33-.46,1.1-.2,2.21-.42,3.42-.65,1.64-.43,3.48-.76,5.17-1.32,1.69-.56,3.24-1.35,4.31-2.7.46-.63.71-1.42.75-2.23.04-.81-.12-1.65-.47-2.39-.47-1-1.23-1.72-2.11-2.32s-1.87-1.06-2.8-1.54Z"/>
      </g>
      <g>
        <path class="cls-3" d="M127.49,91.36c0-4.11,1.44-7.2,3.91-9.77-2.57-2.06-3.7-4.94-3.7-8.23,0-4.83,2.47-9.05,6.37-12.03-4.22-3.6-6.89-8.94-6.89-15.42,0-12.85,10.18-21.18,22.72-21.18,3.08,0,5.96.51,8.64,1.44h22.41v11.1h-10.18c1.13,2.57,1.75,5.45,1.75,8.64,0,12.75-10.18,20.97-22.62,20.97-3.39,0-6.48-.62-9.36-1.65-1.23,1.23-2.16,2.78-2.16,4.52,0,2.88,2.47,3.6,6.07,3.8,3.19.21,9.36.21,12.95.31,9.15.21,19.43,2.06,19.43,13.98,0,12.95-11.93,18.51-26.83,18.51-12.75,0-22.52-4.11-22.52-15.01ZM164.3,89.4c0-4.01-3.91-4.32-7.61-4.32h-10.08c-2.06,0-3.8,0-6.27-.31-.82,1.34-1.13,2.78-1.13,4.32,0,5.65,5.24,6.68,11.72,6.68,7.3,0,13.37-1.34,13.37-6.37ZM160.29,45.91c0-5.96-3.8-10.38-10.38-10.38s-10.49,4.32-10.49,10.38,4.01,10.18,10.49,10.18,10.38-4.11,10.38-10.18Z"/>
        <path class="cls-5" d="M183.33,60.51v-11.1c0-13.67,10.9-24.57,24.47-24.57s24.47,10.9,24.47,24.57v9.05c0,1.25-1.01,2.26-2.26,2.26h-34.34v2.67c0,5.49,4.49,9.97,9.97,9.97h26.63v11.72h-24.47c-13.57,0-24.47-10.9-24.47-24.57ZM219.93,49.61v-2.11c0-3.49-1.73-6.8-4.67-8.66-9.54-6.03-19.59.77-19.59,9.84v.93h24.26Z"/>
        <path class="cls-10" d="M238.27,85.08V23.01l12.34,3.16v6.99c3.7-5.04,8.94-8.33,15.52-8.33,11.93,0,20.56,9.05,20.56,21.59v38.66h-12.34v-37.12c0-7.2-3.8-11.31-10.59-11.31-8.12,0-13.16,5.65-13.16,14.81v33.62h-12.34Z"/>
        <path class="cls-8" d="M293.01,85.08V23.01l12.34,3.16v7.51c4.11-5.96,9.66-8.84,15.63-8.84,7.51,0,13.57,3.7,16.96,10.28,3.91-6.48,10.69-10.28,18.1-10.28,12.03,0,19.43,8.74,19.43,21.59v38.66h-12.34v-37.12c0-7.3-3.39-11.31-9.56-11.31-8.12,0-13.16,5.65-13.16,14.81v33.62h-12.34v-37.12c0-7.3-3.39-11.31-9.56-11.31-8.12,0-13.16,5.65-13.16,14.81v33.62h-12.34Z"/>
        <path class="cls-6" d="M381.51,60.51v-11.1c0-13.67,10.9-24.57,24.47-24.57s24.47,10.9,24.47,24.57v9.05c0,1.25-1.01,2.26-2.26,2.26h-34.34v2.67c0,5.49,4.49,9.97,9.97,9.97h20.67v11.72h-18.51c-13.57,0-24.47-10.9-24.47-24.57ZM418.11,49.61v-2.11c0-3.49-1.73-6.8-4.67-8.66-9.54-6.03-19.59.77-19.59,9.84v.93h24.26Z"/>
        <path class="cls-9" d="M436.54,26.17V9.75l12.34,3.16v13.26h19.53v11.62h-19.53v28.1c0,4.11,2.57,6.79,6.58,6.79l12.95.1v12.31h-16.04c-8.74,0-15.83-7.09-15.83-15.83V26.17Z"/>
        <path class="cls-2" d="M473.06,68.84c0-9.46,6.89-15.94,18.81-17.89,2.78-.41,11.1-1.44,13.06-1.85,2.57-.41,3.8-1.85,3.8-4.32,0-5.24-4.94-8.43-11-8.43-5.55,0-9.66,2.16-12.13,6.07-.51.82-1.23,1.34-1.95,1.34-.51,0-.93-.1-1.34-.41l-5.76-3.91c-.62-.41-.93-1.03-.93-1.75,0-.31.1-.62.21-.93,4.01-7.51,12.23-11.93,22.1-11.93,13.67,0,22.72,8.23,22.72,20.77v39.48h-9.15c-1.23,0-2.16,0-2.16,0v-6.17c-4.73,5.04-10.28,7.51-16.86,7.51-11.52,0-19.43-7.09-19.43-17.58ZM509.05,60.92v-2.06c-4.63.72-13.06,1.75-15.83,2.26-5.65,1.03-8.43,3.39-8.43,7.3,0,4.22,3.39,6.99,8.64,6.99,8.12,0,15.63-6.89,15.63-14.5Z"/>
      </g>
    </g>
  </g>
</svg>