<?xml version="1.0" encoding="UTF-8"?>
<svg id="Layer_2" data-name="Layer 2" xmlns="http://www.w3.org/2000/svg" viewBox="0 0 796.43 218.51">
  <defs>
    <style>
      .cls-1 {
        fill: #2563eb;
      }

      .cls-2 {
        fill: #a3b4d3;
      }
    </style>
  </defs>
  <g id="Layer_1-2" data-name="Layer 1">
    <g>
      <g>
        <path class="cls-1" d="M102.88,83.77v26.54c-4.47,2.41-8.61,4.44-12.41,6.09s-7.27,2.91-10.41,3.8-6.4,1.55-9.78,1.99-6.9.66-10.53.66c-5.05,0-9.92-.38-14.6-1.13s-9.18-1.89-13.49-3.4c-3.38-1.16-6.4-2.47-9.06-3.93s-4.97-3.08-6.91-4.85c-1.95-1.77-3.82-3.96-5.61-6.57s-3.51-5.65-5.15-9.11c-1.64-3.46-2.87-7.12-3.69-10.99s-1.23-7.94-1.23-12.22v-14.28c0-6.59,1-12.83,3.02-18.72s5.03-11.42,9.05-16.6c5.4-7.01,11.78-12.27,19.13-15.78C38.55,1.75,46.87,0,56.17,0c2.7,0,5.34.14,7.9.41s5.06.68,7.49,1.23c2.43.55,4.8,1.23,7.1,2.05s4.56,1.78,6.74,2.87c1.32-1.19,2.62-2.08,3.91-2.68s2.56-.89,3.81-.89c1.45,0,2.76.25,3.93.75s2.21,1.25,3.11,2.24c.9,1,1.58,2.34,2.03,4.03s.68,3.72.68,6.1v12.84c0,2.38-.23,4.42-.69,6.12s-1.15,3.05-2.06,4.06c-.92,1.01-1.97,1.77-3.15,2.28s-2.5.76-3.94.76c-1.16,0-2.24-.18-3.23-.53s-1.91-.88-2.75-1.59c-.64-.48-1.24-1.26-1.77-2.33s-1.03-2.43-1.46-4.09c-.43-1.66-.9-3.04-1.39-4.16s-1.01-1.97-1.56-2.55c-.87-.93-2.07-1.81-3.61-2.64s-3.41-1.6-5.61-2.33c-2.2-.72-4.54-1.27-7.01-1.63s-5.07-.54-7.8-.54c-3.93,0-7.59.4-11,1.21s-6.56,2.01-9.46,3.62c-2.06,1.19-4.04,2.82-5.94,4.9s-3.72,4.59-5.45,7.55c-1.74,2.96-3.04,6.05-3.91,9.27s-1.3,6.56-1.3,10.04v14.28c0,5.31.77,9.98,2.3,14.01s3.84,7.42,6.91,10.17c3.07,2.75,7.05,4.81,11.93,6.19s10.67,2.06,17.36,2.06c4.54,0,8.87-.43,13-1.28s8.07-2.13,11.8-3.84v-14.19h-20.17c-2.38,0-4.42-.23-6.12-.69s-3.05-1.15-4.06-2.06c-1.01-.92-1.77-1.97-2.28-3.17s-.76-2.54-.76-4.02.25-2.82.76-4.02,1.27-2.26,2.28-3.17c1.01-.92,2.37-1.6,4.06-2.06s3.74-.69,6.12-.69l17.56.05,17.56.05c2.38,0,4.42.23,6.12.68s3.05,1.13,4.07,2.03c1.01.9,1.77,1.95,2.28,3.14s.76,2.53.76,4c0,1.16-.17,2.24-.52,3.26s-.86,1.95-1.56,2.82c-.69.87-1.57,1.62-2.62,2.27s-2.29,1.17-3.7,1.59Z"/>
        <path class="cls-1" d="M266.44,35.22v6.66c1.8-1.54,3.7-2.89,5.68-4.05s4.07-2.12,6.24-2.9,4.44-1.35,6.79-1.74,4.8-.58,7.35-.58c5.85,0,11.1.91,15.73,2.73s8.65,4.54,12.06,8.18c2.7,2.9,4.73,6.24,6.08,10.04s2.03,8.04,2.03,12.74v36.77c2.09,0,3.91.23,5.45.69s2.82,1.15,3.81,2.06c1,.92,1.74,1.97,2.24,3.17s.75,2.54.75,4.02-.25,2.76-.76,3.95-1.27,2.23-2.28,3.15c-1.01.92-2.37,1.61-4.07,2.06s-3.74.69-6.12.69h-17.85c-2.38,0-4.42-.23-6.12-.69s-3.05-1.15-4.06-2.06c-1.01-.92-1.77-1.97-2.28-3.17s-.76-2.54-.76-4.02.25-2.76.75-3.94,1.25-2.23,2.24-3.15c1-.92,2.27-1.6,3.81-2.06s3.36-.69,5.45-.69v-37.35c0-2.16-.29-4.02-.87-5.6s-1.45-2.86-2.61-3.86c-1.51-1.29-3.4-2.25-5.67-2.89s-4.91-.97-7.94-.97c-2.28,0-4.43.22-6.43.66s-3.86,1.11-5.58,1.99c-1.72.89-3.67,2.26-5.85,4.14s-4.59,4.24-7.23,7.1v36.77c2.54,0,4.63.12,6.27.36s2.83.6,3.57,1.09c1.58.96,2.76,2.15,3.55,3.57s1.18,3.06,1.18,4.92c0,1.45-.25,2.76-.76,3.95s-1.27,2.23-2.28,3.15c-1.01.92-2.37,1.61-4.07,2.06s-3.74.69-6.12.69h-22.49c-2.38,0-4.42-.23-6.12-.69s-3.05-1.15-4.06-2.06c-1.01-.92-1.77-1.97-2.28-3.17s-.76-2.54-.76-4.02c0-1.8.39-3.4,1.16-4.8s1.93-2.6,3.47-3.59c.77-.48,1.99-.85,3.64-1.09s3.76-.36,6.3-.36v-48.06c-2.09,0-3.91-.23-5.45-.7s-2.81-1.17-3.81-2.1c-1-.93-1.75-1.99-2.24-3.18s-.75-2.51-.75-3.96.25-2.76.76-3.94,1.27-2.23,2.28-3.15c1.01-.92,2.37-1.6,4.06-2.06s3.74-.69,6.12-.69h18.82Z"/>
        <path class="cls-1" d="M382.83,35.22v5.6c1.61-1.58,3.14-2.91,4.6-3.99s2.84-1.93,4.14-2.52c1.3-.59,2.71-1.04,4.21-1.34s3.11-.45,4.81-.45c1.45,0,2.89.18,4.32.53s2.85.88,4.27,1.59c1.42.71,2.81,1.59,4.2,2.65s2.75,2.3,4.1,3.72c1.7-1.42,3.42-2.65,5.15-3.7s3.47-1.93,5.22-2.62c1.75-.69,3.53-1.21,5.32-1.56s3.61-.52,5.44-.52c3.67,0,6.99.49,9.96,1.47s5.61,2.45,7.89,4.41c3.02,2.57,5.29,5.55,6.8,8.93s2.27,7.16,2.27,11.34v44.3c2.06,0,3.85.23,5.38.7s2.79,1.17,3.79,2.1c1,.93,1.74,2,2.24,3.19s.75,2.51.75,3.96-.25,2.76-.75,3.95-1.25,2.23-2.24,3.15c-1,.92-2.34,1.61-4.03,2.06s-3.72.69-6.1.69h-18.82v-62.44c0-1.51-.14-2.79-.41-3.84s-.68-1.86-1.23-2.44c-.55-.58-1.24-1.01-2.08-1.3s-1.82-.43-2.94-.43-2.15.14-3.16.43-1.99.72-2.92,1.3c-1.19.8-2.51,1.96-3.96,3.47s-3.02,3.38-4.73,5.6v39.86c2.06,0,3.85.23,5.38.7s2.79,1.17,3.79,2.1c1,.93,1.74,2,2.24,3.19s.75,2.51.75,3.96-.25,2.76-.75,3.95-1.25,2.23-2.24,3.15c-1,.92-2.34,1.61-4.03,2.06s-3.72.69-6.1.69h-18.82v-62.44c0-1.48-.14-2.74-.42-3.78s-.7-1.85-1.27-2.45c-.56-.6-1.27-1.04-2.11-1.34s-1.83-.45-2.96-.45-2.31.18-3.45.54-2.28.9-3.4,1.63c-1.13.72-2.37,1.81-3.72,3.25s-2.81,3.24-4.39,5.39v39.86c2.06,0,3.86.23,5.39.7s2.81,1.17,3.82,2.1c1.01.93,1.77,2,2.28,3.19s.76,2.51.76,3.96-.25,2.76-.76,3.95-1.27,2.23-2.28,3.15c-1.01.92-2.37,1.61-4.07,2.06s-3.74.69-6.12.69h-17.85c-2.38,0-4.42-.23-6.12-.69s-3.05-1.15-4.06-2.06c-1.01-.92-1.77-1.97-2.28-3.17s-.76-2.54-.76-4.02.25-2.76.75-3.94,1.25-2.23,2.24-3.15c1-.92,2.27-1.6,3.81-2.06s3.36-.69,5.45-.69v-48.06c-2.09,0-3.91-.23-5.45-.7s-2.81-1.17-3.81-2.1c-1-.93-1.74-1.99-2.24-3.18s-.75-2.51-.75-3.96.25-2.76.76-3.94,1.27-2.23,2.28-3.15c1.01-.92,2.37-1.6,4.06-2.06s3.74-.69,6.12-.69h18.82Z"/>
        <path class="cls-1" d="M581.49,75.77l-39.86,7.61-39.86,7.61c1.49,2.34,3.33,4.35,5.51,6.05s4.71,3.07,7.58,4.13c2.87,1.06,6.12,1.64,9.75,1.75s7.64-.26,12.04-1.09c3.6-.69,7.72-1.88,12.36-3.56s9.8-3.88,15.47-6.56c2.34-1.1,4.34-1.97,5.99-2.62s2.94-1.05,3.89-1.23c1.3-.25,2.53-.25,3.71,0s2.3.75,3.36,1.5c1.06.75,1.92,1.66,2.58,2.72s1.13,2.3,1.39,3.69c.24,1.26.23,2.48-.04,3.64s-.79,2.28-1.57,3.34c-1.04,1.41-3,2.97-5.86,4.67s-6.65,3.55-11.35,5.54c-4.7,1.99-9.35,3.7-13.95,5.13s-9.17,2.57-13.69,3.44c-7.77,1.48-14.98,1.72-21.61.71s-12.7-3.27-18.2-6.77c-5.5-3.5-9.93-7.73-13.29-12.69s-5.65-10.65-6.88-17.06c-1.3-6.82-1.22-13.25.24-19.29s4.3-11.67,8.52-16.92c4.22-5.24,9.03-9.49,14.43-12.74s11.38-5.5,17.96-6.76c3.95-.75,7.8-1.13,11.56-1.13s7.42.38,10.99,1.14c3.57.76,6.72,1.66,9.47,2.69s5.07,2.2,6.99,3.5c2.72,1.9,5.3,4.12,7.73,6.66s4.72,5.38,6.86,8.54c1.47,2.21,2.72,4.66,3.76,7.34s1.86,5.61,2.46,8.77l.79,4.12.79,4.12ZM556.27,60.45c-2.02-2.5-4.19-4.6-6.53-6.31s-4.84-3.02-7.5-3.93c-2.66-.92-5.49-1.44-8.48-1.59s-6.14.11-9.46.74c-3.29.63-6.29,1.56-9,2.79s-5.14,2.76-7.28,4.59c-2.14,1.83-3.99,3.98-5.55,6.43s-2.84,5.21-3.82,8.28l28.82-5.5,28.82-5.5Z"/>
        <path class="cls-1" d="M223.47,75.77l-39.86,7.61-39.86,7.61c1.49,2.34,3.33,4.35,5.51,6.05s4.71,3.07,7.58,4.13c2.87,1.06,6.12,1.64,9.75,1.75s7.64-.26,12.04-1.09c3.6-.69,7.72-1.88,12.36-3.56s9.8-3.88,15.47-6.56c2.34-1.1,4.34-1.97,5.99-2.62s2.94-1.05,3.89-1.23c1.3-.25,2.53-.25,3.71,0s2.3.75,3.36,1.5c1.06.75,1.92,1.66,2.58,2.72s1.13,2.3,1.39,3.69c.24,1.26.23,2.48-.04,3.64s-.79,2.28-1.57,3.34c-1.04,1.41-3,2.97-5.86,4.67s-6.65,3.55-11.35,5.54c-4.7,1.99-9.35,3.7-13.95,5.13s-9.17,2.57-13.69,3.44c-7.77,1.48-14.98,1.72-21.61.71s-12.7-3.27-18.2-6.77c-5.5-3.5-9.93-7.73-13.29-12.69s-5.65-10.65-6.88-17.06c-1.3-6.82-1.22-13.25.24-19.29,1.46-6.03,4.3-11.67,8.52-16.92,4.22-5.24,9.03-9.49,14.43-12.74s11.38-5.5,17.96-6.76c3.95-.75,7.8-1.13,11.56-1.13s7.42.38,10.99,1.14c3.57.76,6.72,1.66,9.47,2.69s5.07,2.2,6.99,3.5c2.72,1.9,5.3,4.12,7.73,6.66s4.72,5.38,6.86,8.54c1.47,2.21,2.72,4.66,3.76,7.34s1.86,5.61,2.46,8.77l.79,4.12.79,4.12ZM198.24,60.45c-2.02-2.5-4.19-4.6-6.53-6.31s-4.84-3.02-7.5-3.93c-2.66-.92-5.49-1.44-8.48-1.59s-6.14.11-9.46.74c-3.29.63-6.29,1.56-9,2.79s-5.14,2.76-7.28,4.59c-2.14,1.83-3.99,3.98-5.55,6.43s-2.84,5.21-3.82,8.28l28.82-5.5,28.82-5.5Z"/>
        <path class="cls-1" d="M621.85,51.82v39.66c0,2.12.22,3.88.65,5.28s1.09,2.44,1.95,3.11c1.35,1.06,3.23,1.86,5.65,2.39s5.36.8,8.83.8c5.05,0,9.91-.54,14.57-1.62,4.66-1.08,9.14-2.69,13.41-4.85,1.64-.84,3.1-1.46,4.39-1.88s2.4-.63,3.33-.63c1.29,0,2.49.24,3.61.72s2.15,1.21,3.1,2.17c.95.97,1.66,2.03,2.14,3.21s.71,2.45.71,3.84c0,1.29-.26,2.48-.77,3.59s-1.29,2.13-2.32,3.06c-1.58,1.51-3.92,2.96-7.03,4.36s-6.99,2.72-11.64,3.99c-4.65,1.27-8.93,2.22-12.85,2.86s-7.47.95-10.65.95c-6.14,0-11.52-.66-16.13-1.99s-8.45-3.32-11.52-5.97c-3.07-2.65-5.38-5.61-6.91-8.87s-2.3-6.82-2.3-10.68v-43.52h-7.14c-2.38,0-4.42-.23-6.12-.69s-3.05-1.15-4.06-2.06c-1.01-.92-1.77-1.97-2.28-3.17s-.76-2.54-.76-4.02.25-2.76.76-3.94,1.27-2.23,2.28-3.15c1.01-.92,2.37-1.6,4.06-2.06s3.74-.69,6.12-.69h7.14V14.19c0-2.38.23-4.42.69-6.12s1.15-3.05,2.06-4.07c.92-1.01,1.97-1.77,3.17-2.28s2.54-.76,4.02-.76,2.76.25,3.94.76,2.23,1.27,3.15,2.28c.92,1.01,1.6,2.37,2.06,4.07s.69,3.74.69,6.12v17.85h36.58c2.38,0,4.42.23,6.12.69s3.05,1.15,4.07,2.06c1.01.92,1.77,1.98,2.28,3.17s.76,2.54.76,4.02-.25,2.76-.76,3.94-1.27,2.23-2.28,3.15c-1.01.92-2.37,1.6-4.07,2.06s-3.74.69-6.12.69h-36.58Z"/>
        <path class="cls-1" d="M760.05,119.57v-4.63c-2.48,1.32-5.08,2.47-7.82,3.46s-5.6,1.81-8.59,2.47c-2.99.66-5.85,1.15-8.57,1.48s-5.3.5-7.74.5c-5.31,0-10.12-.7-14.43-2.11s-8.12-3.52-11.44-6.33c-3.31-2.81-5.8-5.78-7.46-8.89s-2.48-6.37-2.48-9.78c0-4.15,1.06-8.15,3.17-12s5.29-7.56,9.52-11.11c4.23-3.55,9.27-6.22,15.11-8s12.5-2.67,19.97-2.67c2.99,0,6.22.16,9.67.48s7.15.8,11.07,1.45v-4.73c0-1.48-.32-2.82-.95-4.03s-1.59-2.28-2.86-3.21c-1.27-.93-3.12-1.63-5.54-2.1s-5.42-.7-8.99-.7c-2.93,0-6.29.29-10.09.87s-8.03,1.45-12.69,2.61c-1.74.42-3.28.73-4.63.94s-2.51.31-3.47.31c-1.32,0-2.54-.24-3.66-.71s-2.13-1.19-3.05-2.14c-.92-.95-1.6-2.03-2.06-3.24s-.69-2.56-.69-4.04c0-.84.08-1.62.24-2.34s.4-1.39.72-2c.32-.61.71-1.16,1.16-1.65s.97-.92,1.54-1.29c.58-.37,1.47-.78,2.68-1.22s2.73-.92,4.56-1.44c2.44-.68,4.91-1.28,7.41-1.82s5.01-1.01,7.55-1.41c2.54-.4,4.96-.7,7.26-.9s4.48-.3,6.54-.3c6.14,0,11.6.66,16.37,1.99s8.85,3.32,12.24,5.97c3.39,2.65,5.94,5.79,7.64,9.42s2.55,7.74,2.55,12.34v40.72h3.38c2.38,0,4.42.23,6.12.69s3.05,1.15,4.07,2.06,1.77,1.97,2.28,3.17.76,2.54.76,4.02-.25,2.76-.76,3.95-1.27,2.23-2.28,3.15c-1.01.92-2.37,1.61-4.07,2.06s-3.74.69-6.12.69h-23.16ZM760.05,84.15c-3.96-.77-7.76-1.35-11.41-1.74s-7.15-.58-10.49-.58c-4.02,0-7.76.49-11.22,1.47s-6.63,2.45-9.53,4.41c-1.8,1.25-3.15,2.52-4.05,3.79s-1.35,2.55-1.35,3.84c0,.93.22,1.78.65,2.53s1.09,1.42,1.95,2c1.61,1.06,3.51,1.86,5.72,2.39s4.7.8,7.5.8c2.38,0,4.92-.23,7.61-.7s5.55-1.17,8.55-2.1c3.01-.93,5.85-2.03,8.53-3.3s5.19-2.71,7.54-4.32v-8.49Z"/>
      </g>
      <g>
        <path class="cls-2" d="M20.71,189.9c-1.29.33-3.53.54-5.88.65s-4.82.14-6.56.09c-1.08,0-2.26.23-3.17.18s-1.56-.38-1.56-1.5c0-.79,1.43-1.16,3.26-1.34s4.04-.16,5.62-.16c0-.12.08-.56.17-.99s.17-.87.17-1c0-3.19-.12-6.37-.25-9.56s-.25-6.41-.25-9.68c-1.29,0-2.47.12-3.61.25s-2.24.25-3.36.25c-1,0-2.07.04-2.9-.16s-1.41-.63-1.41-1.59c0-.21.06-.39.2-.56s.34-.31.63-.44c.7,0,2.92-.19,5.16-.37s4.5-.37,5.29-.37c.42-.25,1.16,0,1.8.5s1.18,1.24,1.18,1.99c0,1.83-.08,3.63-.17,5.47s-.17,3.73-.17,5.72c0,1.74.06,3.48.26,5.21s.53,3.42,1.07,5.08h1.91c.79,0,1.62-.04,2.41-.08s1.53-.08,2.16-.08c.5,0,.87.19,1.15.48s.47.68.59,1.1c-.04.17-.27.44-.5.67s-.46.45-.5.49l-1.37-.12-1.37-.12ZM10.51,143.03c.46,0,1.33.62,2.08,1.37s1.4,1.62,1.4,2.11c0,.87-.31,1.62-.84,2.15s-1.27.84-2.15.84c-1,0-1.68-.39-2.12-1.03s-.62-1.5-.62-2.46c0-.75.06-1.49.37-2.05s.87-.93,1.87-.93Z"/>
        <path class="cls-2" d="M65,190.47c-.33,0-.6-.17-.78-.43s-.26-.61-.22-.99c0-.08.06-.41.2-.72s.34-.6.63-.6h3.57l.37-.12.37-.12.04-1.08.04-1.08c0-.62,0-1.39.01-2.39s.03-2.22.07-3.75c.04-2.78-.04-6.22-.7-8.97s-1.91-4.8-4.19-4.8c-2.45,0-4.81,1.43-6.57,3.48s-2.92,4.73-2.97,7.22l-.08,5.64-.08,5.64h3.57c.21,0,.41.29.57.61s.26.67.26.8c-.04.71-.91,1.1-2.13,1.32s-2.77.26-4.18.26h-3.65c-.62,0-1.18-.04-1.58-.24s-.62-.55-.58-1.17c0-.17.08-.5.23-.79s.35-.54.6-.54h3.4c0-.79.12-2.14.26-3.79s.28-3.63.32-5.66c.08-3.03-.06-6.2-.7-8.62s-1.78-4.07-3.69-4.07c-2.86,0-5.45,2.28-7.33,4.7s-3.04,4.97-3.04,5.51c-.08,2.74-.08,4.77-.05,6.34s.09,2.66.14,3.53l.08.83.08.83.21.21.21.21h4.64c.21,0,.48.29.69.6s.38.64.38.72c0,.75-.54,1.16-1.5,1.39s-2.35.27-4.05.27h-1.24c-.37,0-.75.02-1.12.04s-.75.04-1.12.04c-1.49,0-3.05-.08-4.23-.34s-1.99-.69-1.99-1.4c0-.33.12-.72.34-1.04s.53-.54.9-.54h5.23s-.02-5.06-.04-10.21-.04-10.4-.04-10.77c0-.17-.41-.37-.94-.54s-1.17-.29-1.63-.29c-.66,0-.89.08-1.11.16s-.43.16-1.05.16c-.7,0-1.33-.08-1.77-.34s-.72-.69-.72-1.4c.04-.5.31-.77.74-.91s1.01-.17,1.67-.17h1.58c1.08,0,2.63-.02,3.91.14s2.27.49,2.23,1.19l-.04,2.74-.04,2.74c1.24-1.62,2.63-3.32,4.25-4.61s3.46-2.19,5.62-2.19c2.45,0,3.79.77,4.79,2s1.64,2.93,2.68,4.8c1.08-1.99,2.24-3.69,3.68-4.89s3.16-1.91,5.36-1.91c4.11,0,6.32,2.65,7.51,6.18s1.33,7.92,1.29,11.4c-.04.71-.08,1.37-.11,2.02s-.05,1.3-.05,1.96l-.04,1.41-.04,1.41c.87,0,2.49.08,3.89.32s2.58.63,2.58,1.25c0,.37-.17.73-.41.99s-.58.43-.91.43h-12.44Z"/>
        <path class="cls-2" d="M101.25,186.58c-1.16,1.04-2.7,2.07-4.41,2.85s-3.6,1.3-5.46,1.3-3.82-.29-5.37-1.2-2.63-2.45-2.51-4.93c.08-2.94,1.35-4.79,3.16-5.9s4.18-1.48,6.46-1.48c1.37,0,2.78.12,4.16.32s2.73.47,3.97.76c.42-3.53-.19-6.66-1.6-8.91s-3.63-3.62-6.45-3.62c-2.41,0-3.61,1.22-4.45,2.45s-1.32,2.45-2.27,2.45c-.41,0-.77-.23-1.01-.56s-.36-.77-.32-1.18c.08-2.16,1.08-3.59,2.5-4.48s3.27-1.24,5.05-1.24c8.92,0,11.18,6.22,11.66,12.44.49,6.22-.8,12.44,1.03,12.44.87,0,1.33-.62,1.68-1.24s.6-1.24,1.06-1.24c.25,0,.52.06.76.16s.45.22.57.34c-.08,1.16-.25,2.36-.73,3.28s-1.27,1.53-2.59,1.53c-1.12,0-2.26-.27-3.16-.86s-1.57-1.5-1.73-2.79v-.66ZM91.63,187.82c1.95,0,4.52-.62,6.53-1.75s3.46-2.77,3.17-4.8c-1-.37-2.26-.75-3.64-1.03s-2.87-.47-4.32-.47c-1.62,0-3.17.23-4.36.89s-2.02,1.76-2.19,3.51c-.08,1.53.5,2.45,1.41,2.97s2.16.67,3.4.67Z"/>
        <path class="cls-2" d="M123.07,184.92c-.79.79-1.89,1.91-2.79,2.97s-1.61,2.08-1.61,2.66c0,1.16,5.58,1.93,11.16,4s11.16,5.45,11.16,11.84c0,3.19-1.7,6.22-4.67,8.45s-7.2,3.66-12.25,3.66c-4.77,0-8.19-1.18-10.42-2.96s-3.27-4.17-3.27-6.57c0-2.74,1.6-4.85,3.39-6.28s3.78-2.18,4.57-2.18c.29,0,.83.1,1.21.42s.61.86.28,1.73c-.21.54-1.8.89-3.35,1.71s-3.04,2.11-3.04,4.51c0,1.41,1.1,3.11,3.1,4.46s4.9,2.34,8.51,2.34c3.11,0,6.24-1.2,8.59-2.94s3.93-4.02,3.93-6.18c0-5.52-5.66-7.9-11.32-9.59-5.66-1.69-11.32-2.69-11.32-5.42,0-1.37.79-2.67,1.88-3.91s2.48-2.39,3.68-3.47c-2.16-1.29-3.9-2.65-5.1-4.24s-1.87-3.39-1.87-5.55c0-3.19,1.18-6.16,3.14-8.33s4.7-3.54,7.81-3.54c.42,0,1.41.04,2.52.15s2.33.27,3.2.52c1.04-2.78,2.51-4.64,4.07-5.82s3.22-1.65,4.63-1.65c.95,0,1.87.27,2.54.77s1.11,1.22,1.11,2.14c0,.54-.19.97-.45,1.28s-.59.47-.88.47c-.37,0-.87-.27-1.42-.54s-1.15-.54-1.73-.54c-1,0-1.95.17-2.83.89s-1.69,2.01-2.4,4.25c1.12.58,2.51,1.85,3.62,3.36s1.94,3.28,1.94,4.85c0,4.06-1.91,7.18-4.72,9.27s-6.52,3.17-10.13,3.17l-.25-.08-.25-.08ZM125.89,182.1c2.49,0,4.73-1.04,6.34-2.69s2.61-3.91,2.61-6.36c0-2.65-1.14-4.64-2.99-5.97s-4.4-1.99-7.22-1.99c-2.36,0-4.46,1.18-5.96,2.97s-2.42,4.17-2.42,6.57,1.49,4.27,3.44,5.54,4.35,1.93,6.18,1.93Z"/>
        <path class="cls-2" d="M145.72,174.22c1.24-3.07,2.78-5.91,4.93-7.98s4.93-3.38,8.67-3.38c2.36,0,5.39.56,7.83,1.88s4.28,3.39,4.28,6.42c0,.75-.81,1.39-1.75,1.87s-2.02.79-2.56.87c-3.77.42-6.35.71-8.98.89s-5.33.27-9.35.27c0,3.32.89,6.7,2.73,9.25s4.61,4.27,8.39,4.27c2.2,0,4.46-1.12,6.42-2.24s3.62-2.24,4.61-2.24c.54,0,.95.08,1.23.3s.42.57.42,1.11c0,2.11-2.34,3.59-5.04,4.53s-5.74,1.36-7.15,1.36c-4.15,0-7.82-1.66-10.45-4.34s-4.23-6.4-4.23-10.5v-2.32ZM149.37,172.48c.41,0,1.64-.08,2.87-.17s2.48-.17,2.93-.17c2.07,0,4.35-.04,6.6-.25s4.47-.58,6.42-1.24v-.25c0-1.95-1.45-3.23-3.26-4.03s-3.96-1.11-5.37-1.11c-1.53,0-3.88.89-5.94,2.24s-3.85,3.15-4.26,4.98Z"/>
        <path class="cls-2" d="M179.56,192.46c-.17,0-.29-.46-.37-1.18s-.12-1.72-.12-2.8c0-1.2.06-2.51.13-3.64s.16-2.08.2-2.58c.04-.42.14-.69.32-.85s.43-.23.76-.23c1.12,0,1.6.73,1.79,1.67s.11,2.1.11,2.98c.79,1.33,2.22,2.11,3.89,2.57s3.58.58,5.32.58c1.62,0,3.4-.19,4.78-.85s2.35-1.8,2.35-3.71c0-3.61-4.75-5.08-9.5-6.75s-9.5-3.53-9.5-7.93c0-2.78,1.58-4.6,3.75-5.73s4.96-1.57,7.36-1.57c1.99,0,3.73.39,5.08.84s2.3.94,2.72,1.15c.04-.21.06-.46.07-.7s.01-.47.01-.63v-1.41c0-.66.21-.99.49-1.16s.63-.17.92-.17c.75.04,1.1.54,1.27,1.29s.15,1.74.15,2.78c0,2.99-.06,4.79-.27,5.85s-.56,1.37-1.14,1.37c-.75,0-1.2-.27-1.47-.68s-.35-.97-.35-1.56c0-.42.04-.83.08-1.24s.08-.8.08-1.17c0-.29-1.49-.83-3.2-1.29s-3.64-.86-4.51-.86c-1.7,0-3.69.31-5.26,1.1s-2.71,2.05-2.71,3.96c0,3.15,4.79,4.58,9.58,6.4s9.58,4.01,9.58,8.7c0,2.61-1.37,4.23-3.33,5.19s-4.51,1.27-6.87,1.27c-2.24,0-3.92-.19-5.41-.54s-2.8-.87-4.29-1.54c0,.17.02.44.04.76s.04.69.04,1.07c0,.41-.04.79-.16,1.06s-.3.44-.59.44l-.91-.12-.91-.12Z"/>
        <path class="cls-2" d="M266.9,190.47c-.33,0-.6-.17-.78-.43s-.26-.61-.22-.99c0-.08.06-.41.2-.72s.34-.6.63-.6h3.57l.37-.12.37-.12.04-1.08.04-1.08c0-.62,0-1.39.01-2.39s.03-2.22.07-3.75c.04-2.78-.04-6.22-.71-8.97s-1.91-4.8-4.19-4.8c-2.45,0-4.81,1.43-6.57,3.48s-2.92,4.73-2.97,7.22l-.08,5.64-.08,5.64h3.57c.21,0,.42.29.57.61s.26.67.26.8c-.04.71-.91,1.1-2.13,1.32s-2.77.26-4.18.26h-3.65c-.62,0-1.18-.04-1.58-.24s-.62-.55-.58-1.17c0-.17.08-.5.23-.79s.35-.54.6-.54h3.4c0-.79.12-2.14.26-3.79s.28-3.63.32-5.66c.08-3.03-.06-6.2-.7-8.62s-1.78-4.07-3.69-4.07c-2.86,0-5.45,2.28-7.33,4.7s-3.04,4.97-3.04,5.51c-.08,2.74-.08,4.77-.05,6.34s.09,2.66.14,3.53l.08.83.08.83.21.21.21.21h4.64c.21,0,.48.29.7.6s.38.64.38.72c0,.75-.54,1.16-1.5,1.39s-2.35.27-4.05.27h-1.24c-.37,0-.75.02-1.12.04s-.75.04-1.12.04c-1.49,0-3.05-.08-4.23-.34s-1.99-.69-1.99-1.4c0-.33.12-.72.34-1.04s.53-.54.9-.54h5.23s-.02-5.06-.04-10.21-.04-10.4-.04-10.77c0-.17-.41-.37-.94-.54s-1.17-.29-1.63-.29c-.66,0-.89.08-1.11.16s-.43.16-1.05.16c-.7,0-1.33-.08-1.77-.34s-.72-.69-.72-1.4c.04-.5.31-.77.74-.91s1.01-.17,1.67-.17h1.58c1.08,0,2.63-.02,3.91.14s2.27.49,2.23,1.19l-.04,2.74-.04,2.74c1.24-1.62,2.63-3.32,4.25-4.61s3.46-2.19,5.62-2.19c2.45,0,3.79.77,4.79,2s1.64,2.93,2.67,4.8c1.08-1.99,2.24-3.69,3.68-4.89s3.16-1.91,5.36-1.91c4.11,0,6.32,2.65,7.51,6.18s1.33,7.92,1.29,11.4c-.04.71-.08,1.37-.11,2.02s-.05,1.3-.05,1.96l-.04,1.41-.04,1.41c.87,0,2.49.08,3.89.32s2.58.63,2.58,1.25c0,.37-.17.73-.41.99s-.58.43-.91.43h-12.44Z"/>
        <path class="cls-2" d="M283.08,174.22c1.24-3.07,2.78-5.91,4.93-7.98s4.93-3.38,8.67-3.38c2.36,0,5.39.56,7.83,1.88s4.28,3.39,4.28,6.42c0,.75-.81,1.39-1.75,1.87s-2.02.79-2.56.87c-3.77.42-6.35.71-8.98.89s-5.33.27-9.35.27c0,3.32.89,6.7,2.73,9.25s4.61,4.27,8.39,4.27c2.2,0,4.46-1.12,6.42-2.24s3.62-2.24,4.61-2.24c.54,0,.95.08,1.23.3s.42.57.42,1.11c0,2.11-2.34,3.59-5.04,4.53s-5.74,1.36-7.15,1.36c-4.15,0-7.82-1.66-10.45-4.34s-4.23-6.4-4.23-10.5v-2.32ZM286.73,172.48c.41,0,1.64-.08,2.87-.17s2.48-.17,2.93-.17c2.07,0,4.35-.04,6.6-.25s4.47-.58,6.42-1.24v-.25c0-1.95-1.45-3.23-3.26-4.03s-3.96-1.11-5.37-1.11c-1.53,0-3.88.89-5.94,2.24s-3.85,3.15-4.26,4.98Z"/>
        <path class="cls-2" d="M321.95,166.51c-.04.5-.19,1.1-.32,2.44s-.26,3.41-.26,6.85c0,3.19.27,6.59,1.33,9.19s2.9,4.41,6.05,4.41c3.9,0,4.52-2.45,4.63-4.89s-.28-4.89,1.59-4.89c.41,0,.93.06,1.35.25s.73.5.73,1c0,2.9-.31,5.66-1.5,7.69s-3.27,3.34-6.79,3.34c-4.48,0-7.13-1.97-8.67-4.92s-1.95-6.89-1.95-10.83c0-2.2.12-3.92.25-5.44s.25-2.85.25-4.26c-.29,0-.85-.04-1.53-.08s-1.49-.08-2.28-.08c-.91,0-1.78-.08-2.43-.35s-1.06-.73-1.06-1.47c0-.58,1.24-.87,2.74-1.02s3.23-.15,4.23-.15c.91,0,1.24-.5,1.38-2.54s.07-5.63.2-11.81c0-.25.27-.5.6-.69s.73-.31.98-.31.68.12,1.06.34.68.53.68.9c-.29,6.01-.54,9.17-.72,11.02s-.28,2.42-.28,3.24c.62.12,1.6.21,2.75.26s2.48.07,3.8.07c1.53,0,2.67-.02,3.59-.04s1.6-.04,2.22-.04c.37.16.56.35.65.57s.09.47.09.76c0,.37-.12.66-.35.86s-.56.3-.97.3h-11.78l-.12.17-.12.17Z"/>
        <path class="cls-2" d="M358.77,186.58c-1.16,1.04-2.7,2.07-4.41,2.85s-3.6,1.3-5.46,1.3-3.82-.29-5.37-1.2-2.63-2.45-2.51-4.93c.08-2.94,1.35-4.79,3.16-5.9s4.18-1.48,6.46-1.48c1.37,0,2.78.12,4.16.32s2.73.47,3.97.76c.42-3.53-.19-6.66-1.6-8.91s-3.63-3.62-6.45-3.62c-2.41,0-3.61,1.22-4.45,2.45s-1.32,2.45-2.27,2.45c-.41,0-.77-.23-1.01-.56s-.36-.77-.32-1.18c.08-2.16,1.08-3.59,2.5-4.48s3.27-1.24,5.05-1.24c8.92,0,11.18,6.22,11.66,12.44.49,6.22-.8,12.44,1.03,12.44.87,0,1.33-.62,1.68-1.24s.6-1.24,1.06-1.24c.25,0,.52.06.76.16s.45.22.57.34c-.08,1.16-.25,2.36-.73,3.28s-1.27,1.53-2.59,1.53c-1.12,0-2.26-.27-3.16-.86s-1.57-1.5-1.73-2.79v-.66ZM349.15,187.82c1.95,0,4.52-.62,6.53-1.75s3.46-2.77,3.17-4.8c-1-.37-2.26-.75-3.64-1.03s-2.87-.47-4.32-.47c-1.62,0-3.17.23-4.36.89s-2.02,1.76-2.19,3.51c-.08,1.53.5,2.45,1.41,2.97s2.16.67,3.4.67Z"/>
        <path class="cls-2" d="M400.33,187.24c.12-.12.25-.19.37-.22s.25-.03.37-.03c.37,0,.68.12.9.34s.34.53.34.9c0,.83-.5,1.39-1.15,1.74s-1.46.5-2.08.5c-1.24,0-2.03-.06-2.83-.12s-1.61-.12-2.89-.12c0,0-.25-.19-.5-.44s-.5-.56-.5-.81v-3.23c-.75,1.41-1.87,2.67-3.35,3.59s-3.33,1.47-5.53,1.47c-3.32,0-6.78-1.18-9.41-3.31s-4.44-5.19-4.44-8.97c0-4.89,1.85-8.5,4.64-10.89s6.55-3.55,10.37-3.55c1.12,0,2.3.04,3.44.21s2.24.46,3.19.95c.41-4.85.33-7.11.14-9.43s-.48-4.7-.48-9.8c0-.58,0-1.16-.01-1.74s-.03-1.16-.07-1.74c0-.08.12-.27.25-.47s.25-.4.25-.53c-1.66-.7-3.96-.35-5.85-.06s-3.36.52-3.36-.44c0-.37.19-.79.44-1.11s.56-.55.81-.55.43,0,.59.03.28.09.4.22l4.27-.41,4.27-.41c.62.12.97.37,1.17.72s.24.78.24,1.27c0,.37,0,.62-.05.85s-.16.44-.36.73c.04.5.06.97.07,1.45s.01.95.01,1.45c0,4.19-.17,4.25-.08,7.82s.41,10.66,1.41,28.91c0,.25-.02.62-.04,1.05s-.04.9-.04,1.36c0,.75.06,1.45.3,1.97s.65.85,1.36.85h3.4ZM391.54,168.58c-1.08-.37-1.93-.87-2.88-1.27s-2.01-.72-3.5-.72c-3.9,0-6.88.89-8.9,2.83s-3.05,4.93-3.05,9.11c0,3.28,1.7,5.6,3.83,7.1s4.68,2.19,6.38,2.19c2.7,0,5.08-1.62,6.7-3.6s2.47-4.32,2.09-5.78l-.33-4.93-.33-4.93Z"/>
        <path class="cls-2" d="M423.89,186.58c-1.16,1.04-2.7,2.07-4.41,2.85s-3.6,1.3-5.46,1.3-3.82-.29-5.37-1.2-2.63-2.45-2.51-4.93c.08-2.94,1.35-4.79,3.16-5.9s4.18-1.48,6.46-1.48c1.37,0,2.78.12,4.16.32s2.73.47,3.97.76c.42-3.53-.19-6.66-1.6-8.91s-3.63-3.62-6.45-3.62c-2.41,0-3.61,1.22-4.45,2.45s-1.32,2.45-2.27,2.45c-.41,0-.77-.23-1.01-.56s-.36-.77-.32-1.18c.08-2.16,1.08-3.59,2.5-4.48s3.27-1.24,5.05-1.24c8.92,0,11.18,6.22,11.66,12.44.49,6.22-.8,12.44,1.03,12.44.87,0,1.33-.62,1.68-1.24s.6-1.24,1.06-1.24c.25,0,.52.06.76.16s.45.22.57.34c-.08,1.16-.25,2.36-.73,3.28s-1.27,1.53-2.59,1.53c-1.12,0-2.26-.27-3.16-.86s-1.57-1.5-1.73-2.79v-.66ZM414.27,187.82c1.95,0,4.52-.62,6.53-1.75s3.46-2.77,3.17-4.8c-1-.37-2.26-.75-3.64-1.03s-2.87-.47-4.32-.47c-1.62,0-3.17.23-4.36.89s-2.02,1.76-2.19,3.51c-.08,1.53.5,2.45,1.41,2.97s2.16.67,3.4.67Z"/>
        <path class="cls-2" d="M443.13,166.51c-.04.5-.19,1.1-.32,2.44s-.26,3.41-.26,6.85c0,3.19.27,6.59,1.33,9.19s2.9,4.41,6.05,4.41c3.9,0,4.52-2.45,4.63-4.89s-.28-4.89,1.59-4.89c.41,0,.93.06,1.35.25s.73.5.73,1c0,2.9-.31,5.66-1.5,7.69s-3.27,3.34-6.79,3.34c-4.48,0-7.13-1.97-8.67-4.92-1.53-2.95-1.95-6.89-1.95-10.83,0-2.2.12-3.92.25-5.44s.25-2.85.25-4.26c-.29,0-.85-.04-1.53-.08s-1.49-.08-2.28-.08c-.91,0-1.78-.08-2.43-.35s-1.06-.73-1.06-1.47c0-.58,1.24-.87,2.74-1.02s3.23-.15,4.23-.15c.91,0,1.24-.5,1.38-2.54s.07-5.63.2-11.81c0-.25.27-.5.6-.69s.73-.31.98-.31.68.12,1.06.34.68.53.68.9c-.29,6.01-.54,9.17-.72,11.02s-.28,2.42-.28,3.24c.62.12,1.6.21,2.75.26s2.48.07,3.8.07c1.53,0,2.67-.02,3.59-.04s1.6-.04,2.22-.04c.37.16.56.35.65.57s.09.47.09.76c0,.37-.12.66-.35.86s-.56.3-.97.3h-11.78l-.12.17-.12.17Z"/>
        <path class="cls-2" d="M479.96,186.58c-1.16,1.04-2.7,2.07-4.41,2.85s-3.6,1.3-5.46,1.3-3.82-.29-5.37-1.2-2.63-2.45-2.51-4.93c.08-2.94,1.35-4.79,3.16-5.9s4.18-1.48,6.46-1.48c1.37,0,2.78.12,4.16.32s2.73.47,3.97.76c.42-3.53-.19-6.66-1.6-8.91s-3.63-3.62-6.45-3.62c-2.41,0-3.61,1.22-4.45,2.45s-1.32,2.45-2.27,2.45c-.41,0-.77-.23-1.01-.56s-.36-.77-.32-1.18c.08-2.16,1.08-3.59,2.5-4.48s3.27-1.24,5.05-1.24c8.92,0,11.18,6.22,11.66,12.44.49,6.22-.8,12.44,1.03,12.44.87,0,1.33-.62,1.68-1.24s.6-1.24,1.06-1.24c.25,0,.52.06.76.16s.45.22.57.34c-.08,1.16-.25,2.36-.73,3.28s-1.27,1.53-2.59,1.53c-1.12,0-2.26-.27-3.16-.86s-1.57-1.5-1.73-2.79v-.66ZM470.34,187.82c1.95,0,4.52-.62,6.53-1.75s3.46-2.77,3.17-4.8c-1-.37-2.26-.75-3.64-1.03s-2.87-.47-4.32-.47c-1.62,0-3.17.23-4.36.89s-2.02,1.76-2.19,3.51c-.08,1.53.5,2.45,1.41,2.97s2.16.67,3.4.67Z"/>
        <path class="cls-2" d="M527.78,184.92c-.79.79-1.89,1.91-2.79,2.97s-1.61,2.08-1.61,2.66c0,1.16,5.58,1.93,11.16,4s11.16,5.45,11.16,11.84c0,3.19-1.7,6.22-4.67,8.45s-7.2,3.66-12.25,3.66c-4.77,0-8.19-1.18-10.42-2.96s-3.27-4.17-3.27-6.57c0-2.74,1.6-4.85,3.39-6.28s3.78-2.18,4.57-2.18c.29,0,.83.1,1.21.42s.61.86.28,1.73c-.21.54-1.8.89-3.35,1.71s-3.04,2.11-3.04,4.51c0,1.41,1.1,3.11,3.1,4.46s4.9,2.34,8.51,2.34c3.11,0,6.24-1.2,8.59-2.94s3.93-4.02,3.93-6.18c0-5.52-5.66-7.9-11.32-9.59-5.66-1.69-11.32-2.69-11.32-5.42,0-1.37.79-2.67,1.88-3.91s2.48-2.39,3.68-3.47c-2.16-1.29-3.9-2.65-5.1-4.24s-1.87-3.39-1.87-5.55c0-3.19,1.18-6.16,3.14-8.33s4.7-3.54,7.81-3.54c.42,0,1.41.04,2.52.15s2.33.27,3.2.52c1.04-2.78,2.51-4.64,4.07-5.82s3.22-1.65,4.63-1.65c.95,0,1.87.27,2.54.77s1.11,1.22,1.11,2.14c0,.54-.19.97-.45,1.28s-.59.47-.88.47c-.37,0-.87-.27-1.42-.54s-1.15-.54-1.73-.54c-1,0-1.95.17-2.83.89s-1.69,2.01-2.4,4.25c1.12.58,2.51,1.85,3.62,3.36s1.94,3.28,1.94,4.85c0,4.06-1.91,7.18-4.72,9.27s-6.52,3.17-10.13,3.17l-.25-.08-.25-.08ZM530.6,182.1c2.49,0,4.73-1.04,6.34-2.69s2.61-3.91,2.61-6.36c0-2.65-1.14-4.64-2.99-5.97s-4.4-1.99-7.22-1.99c-2.36,0-4.46,1.18-5.96,2.97s-2.42,4.17-2.42,6.57,1.49,4.27,3.44,5.54,4.35,1.93,6.18,1.93Z"/>
        <path class="cls-2" d="M548.31,174.22c1.24-3.07,2.78-5.91,4.93-7.98s4.93-3.38,8.67-3.38c2.36,0,5.39.56,7.83,1.88s4.28,3.39,4.28,6.42c0,.75-.81,1.39-1.75,1.87s-2.02.79-2.56.87c-3.77.42-6.35.71-8.98.89s-5.33.27-9.35.27c0,3.32.89,6.7,2.73,9.25s4.61,4.27,8.39,4.27c2.2,0,4.46-1.12,6.42-2.24s3.62-2.24,4.61-2.24c.54,0,.95.08,1.23.3s.42.57.42,1.11c0,2.11-2.34,3.59-5.04,4.53s-5.74,1.36-7.15,1.36c-4.15,0-7.82-1.66-10.45-4.34s-4.23-6.4-4.23-10.5v-2.32ZM551.96,172.48c.41,0,1.64-.08,2.87-.17s2.48-.17,2.93-.17c2.07,0,4.35-.04,6.6-.25s4.47-.58,6.42-1.24v-.25c0-1.95-1.45-3.23-3.26-4.03s-3.96-1.11-5.37-1.11c-1.53,0-3.88.89-5.94,2.24s-3.85,3.15-4.26,4.98Z"/>
        <path class="cls-2" d="M613.59,187.49c.25,0,.44.27.56.59s.19.69.19.9c-.04.5-.46.83-.95,1.07s-1.08.38-1.45.51c-2.41,0-3.96.08-5.52.17s-3.11.17-5.52.17c-.37,0-.68-.19-.89-.47s-.31-.65-.27-1.03c.04-1.16,1.12-1.6,2.31-1.74s2.5,0,3,0c.12-2.86.71-8.42.04-13.26s-2.57-8.97-7.42-8.97c-2.28,0-4.44,1.2-6.04,2.97s-2.66,4.09-2.75,6.32c-.04,1.37.1,3.46.24,5.63s.26,4.41.18,6.07c0,.29,0,.54-.01.77s-.03.44-.07.64c.75.29,1.45.1,2.16-.16s1.41-.59,2.16-.59c.5,0,.79.27.95.64s.21.85.21,1.26c-.04.91-.71,1.35-1.73,1.56s-2.42.19-3.91.19h-6.22c-1.12,0-1.82-.1-2.24-.37s-.54-.71-.5-1.37c.08-1.08,1.18-1.33,2.47-1.37s2.76.12,3.59-.13l-.04-10.49-.04-10.49h-5.06c-.75,0-1.22-.19-1.51-.54s-.39-.87-.39-1.53c.04-.21.06-.46.2-.65s.38-.34.88-.34h7.71c.17,0,.54.19.87.45s.62.59.62.88l-.21,1.37-.21,1.37c1.33-1.41,2.51-2.61,3.83-3.46s2.77-1.35,4.63-1.35c6.1,0,8.98,3.79,10.3,8.78s1.07,11.17.9,15.93l.12.12.12.12,2.36-.08,2.36-.08Z"/>
        <path class="cls-2" d="M617.08,174.22c1.24-3.07,2.78-5.91,4.93-7.98s4.93-3.38,8.67-3.38c2.36,0,5.39.56,7.83,1.88s4.28,3.39,4.28,6.42c0,.75-.81,1.39-1.75,1.87s-2.02.79-2.56.87c-3.77.42-6.35.71-8.98.89s-5.33.27-9.35.27c0,3.32.89,6.7,2.73,9.25s4.61,4.27,8.39,4.27c2.2,0,4.46-1.12,6.42-2.24s3.62-2.24,4.61-2.24c.54,0,.95.08,1.23.3s.42.57.42,1.11c0,2.11-2.34,3.59-5.04,4.53s-5.74,1.36-7.15,1.36c-4.15,0-7.82-1.66-10.45-4.34s-4.23-6.4-4.23-10.5v-2.32ZM620.73,172.48c.41,0,1.64-.08,2.87-.17s2.48-.17,2.93-.17c2.07,0,4.35-.04,6.6-.25s4.47-.58,6.42-1.24v-.25c0-1.95-1.45-3.23-3.26-4.03s-3.96-1.11-5.37-1.11c-1.53,0-3.88.89-5.94,2.24s-3.85,3.15-4.26,4.98Z"/>
        <path class="cls-2" d="M668.92,187.9c.25,0,.75.19,1.18.47s.81.65.81,1.03c0,.5-.19.71-.47.82s-.65.13-1.03.26c-3.03.17-5.47.29-7.92.37s-4.89.13-7.92.13h-2.24c-.37-.25-.64-.33-.82-.45s-.26-.26-.26-.63c0-.42.15-.73.38-.98s.57-.43.94-.6c.87,0,1.62-.06,2.41-.15s1.62-.19,2.65-.27v-.83c0-3.52-.08-6.95-.17-10.4s-.17-6.94-.17-10.59c-1,0-1.37.06-1.74.12s-.75.12-1.74.12c-.75,0-1.7.06-2.47-.13s-1.35-.62-1.35-1.62c0-.37,0-.64.12-.85s.37-.35.87-.48c1.53,0,2.43-.04,3.32-.08s1.78-.08,3.32-.08c.46,0,1.26.25,1.96.64s1.28.93,1.28,1.51c0,.91-.12,1.6-.25,2.3s-.25,1.43-.25,2.43c.54-.54,1.51-2.36,3.12-4.05s3.85-3.24,6.91-3.24c1,0,2.63.33,4.02,1.01s2.53,1.69,2.53,3.06c0,1.24-.56,2.51-1.44,3.46s-2.08,1.6-3.37,1.6c-.5,0-.64-.31-.66-.78s.08-1.09.08-1.71c1.91-.33,2.3-1.45,1.84-2.47s-1.79-1.93-3.33-1.85c-3.32.17-5.56,2.51-7.1,4.83s-2.4,4.62-2.93,4.71c0,.58.08,3.59.19,6.61s.23,6.08.31,6.74h9.37Z"/>
        <path class="cls-2" d="M696.54,186.58c-1.16,1.04-2.7,2.07-4.41,2.85s-3.6,1.3-5.46,1.3-3.82-.29-5.37-1.2-2.63-2.45-2.51-4.93c.08-2.94,1.35-4.79,3.16-5.9s4.18-1.48,6.46-1.48c1.37,0,2.78.12,4.16.32s2.73.47,3.97.76c.42-3.53-.19-6.66-1.6-8.91s-3.63-3.62-6.45-3.62c-2.41,0-3.61,1.22-4.45,2.45s-1.32,2.45-2.27,2.45c-.41,0-.77-.23-1.01-.56s-.36-.77-.32-1.18c.08-2.16,1.08-3.59,2.5-4.48s3.27-1.24,5.05-1.24c8.92,0,11.18,6.22,11.66,12.44.49,6.22-.8,12.44,1.03,12.44.87,0,1.33-.62,1.68-1.24s.6-1.24,1.06-1.24c.25,0,.52.06.76.16s.45.22.57.34c-.08,1.16-.25,2.36-.73,3.28s-1.27,1.53-2.59,1.53c-1.12,0-2.26-.27-3.16-.86s-1.57-1.5-1.73-2.79v-.66ZM686.92,187.82c1.95,0,4.52-.62,6.53-1.75s3.46-2.77,3.17-4.8c-1-.37-2.26-.75-3.64-1.03s-2.87-.47-4.32-.47c-1.62,0-3.17.23-4.36.89s-2.02,1.76-2.19,3.51c-.08,1.53.5,2.45,1.41,2.97s2.16.67,3.4.67Z"/>
        <path class="cls-2" d="M715.79,166.51c-.04.5-.19,1.1-.32,2.44s-.26,3.41-.26,6.85c0,3.19.27,6.59,1.33,9.19s2.9,4.41,6.05,4.41c3.9,0,4.52-2.45,4.63-4.89s-.28-4.89,1.59-4.89c.41,0,.93.06,1.35.25s.73.5.73,1c0,2.9-.31,5.66-1.5,7.69s-3.27,3.34-6.79,3.34c-4.48,0-7.13-1.97-8.67-4.92s-1.95-6.89-1.95-10.83c0-2.2.12-3.92.25-5.44s.25-2.85.25-4.26c-.29,0-.85-.04-1.53-.08s-1.49-.08-2.28-.08c-.91,0-1.78-.08-2.43-.35s-1.06-.73-1.06-1.47c0-.58,1.24-.87,2.74-1.02s3.23-.15,4.23-.15c.91,0,1.24-.5,1.38-2.54s.07-5.63.2-11.81c0-.25.27-.5.6-.69s.73-.31.98-.31.68.12,1.06.34.68.53.68.9c-.29,6.01-.54,9.17-.72,11.02s-.28,2.42-.28,3.24c.62.12,1.6.21,2.75.26s2.48.07,3.8.07c1.53,0,2.67-.02,3.59-.04s1.6-.04,2.22-.04c.37.16.56.35.65.57s.09.47.09.76c0,.37-.12.66-.35.86s-.56.3-.97.3h-11.78l-.12.17-.12.17Z"/>
        <path class="cls-2" d="M752.7,163.1c3.32,0,6.53,1.78,8.92,4.47s3.94,6.27,3.94,9.88c0,4.48-1.99,7.9-4.89,10.2s-6.72,3.48-10.37,3.48c-3.86,0-7.71-1.64-10.61-4.36s-4.82-6.54-4.82-10.9c0-5.31,2.53-8.5,6.02-10.37s7.95-2.41,11.81-2.41ZM751.29,188.24c2.82,0,5.54-1.06,7.55-2.93s3.32-4.57,3.32-7.85c0-2.61-.75-4.75-2.03-6.52s-3.11-3.18-5.27-4.34h-.17c-.46,0-.64.66-.9,1.33s-.59,1.33-1.34,1.33c-.58,0-.79-.66-1.16-1.33s-.91-1.33-2.16-1.33c-.29,0-.56.1-.88.21s-.69.21-1.19.21c-.29,0-.6-.19-.87-.37s-.5-.37-.62-.37c-2.11,0-3.92,1.33-5.19,3.15s-2.02,4.15-2.02,6.14c0,3.9,1.51,7.07,3.89,9.27s5.61,3.42,9.05,3.42Z"/>
        <path class="cls-2" d="M788.41,187.9c.25,0,.75.19,1.18.47s.81.65.81,1.03c0,.5-.19.71-.47.82s-.65.13-1.03.26c-3.03.17-5.47.29-7.92.37s-4.89.13-7.92.13h-2.24c-.37-.25-.64-.33-.82-.45s-.26-.26-.26-.63c0-.42.15-.73.38-.98s.57-.43.94-.6c.87,0,1.62-.06,2.41-.15s1.62-.19,2.65-.27v-.83c0-3.52-.08-6.95-.17-10.4s-.17-6.94-.17-10.59c-1,0-1.37.06-1.74.12s-.75.12-1.74.12c-.75,0-1.7.06-2.47-.13s-1.35-.62-1.35-1.62c0-.37,0-.64.12-.85s.37-.35.87-.48c1.53,0,2.43-.04,3.32-.08s1.78-.08,3.32-.08c.46,0,1.26.25,1.96.64s1.28.93,1.28,1.51c0,.91-.12,1.6-.25,2.3s-.25,1.43-.25,2.43c.54-.54,1.51-2.36,3.12-4.05s3.85-3.24,6.91-3.24c1,0,2.63.33,4.02,1.01s2.53,1.69,2.53,3.06c0,1.24-.56,2.51-1.44,3.46s-2.08,1.6-3.37,1.6c-.5,0-.64-.31-.66-.78s.08-1.09.08-1.71c1.91-.33,2.3-1.45,1.84-2.47s-1.79-1.93-3.33-1.85c-3.32.17-5.56,2.51-7.1,4.83s-2.4,4.62-2.93,4.71c0,.58.08,3.59.19,6.61s.23,6.08.31,6.74h9.37Z"/>
      </g>
    </g>
  </g>
</svg>