<?xml version="1.0" encoding="UTF-8"?>
<svg id="Layer_2" data-name="Layer 2" xmlns="http://www.w3.org/2000/svg" viewBox="0 0 658.71 658.71">
  <defs>
    <style>
      .cls-1 {
        fill: #2563eb;
      }

      .cls-2 {
        fill: #a3b4d3;
      }
    </style>
  </defs>
  <g id="Layer_1-2" data-name="Layer 1">
    <g>
      <path class="cls-2" d="M423.63,171.95c20.44,4.07,43.39,15.67,60.13,32.04,16.74,16.37,27.26,37.52,22.83,60.69-2.29,9.16-8.85,17.53-16.6,25.46-7.75,7.92-16.68,15.4-23.72,22.78-4.51,4.95-12.36,11.62-18.56,18.5s-10.76,13.98-8.69,19.8c1.2,3.49,3.7,6.54,6.83,8.81s6.88,3.73,10.57,4.03c9.76.72,20.52-9.12,31.03-20.32,10.51-11.2,20.77-23.75,29.56-28.45,13.32-7.82,23.39-2.4,31.27,7.35,7.88,9.75,13.56,23.81,18.11,33.27,3.85,8.38,7.58,16.86,11.25,25.37s7.26,17.05,10.84,25.56c6.7,16.25,13.67,32.17,20.81,48.04s14.41,31.67,21.72,47.68c6.91,16.27,15.5,33.62,21.27,51.42,5.77,17.8,8.73,36.05,4.4,54.1-5.08,22.19-20.37,37.36-39.35,44.97s-41.65,7.63-61.48-.45c-7.91-3.54-22.32-10.01-38.92-17.47-16.6-7.46-35.4-15.91-52.09-23.4-8.34-3.75-16.13-7.24-22.84-10.26-6.71-3.01-12.35-5.55-16.38-7.37-3.19-1.25-6.05-3.1-8.18-5.56s-3.54-5.5-3.84-9.13c-.69-4.1.29-8.49,2.22-12.59s4.82-7.93,7.95-10.89c7.03-7.25,16.32-15.4,23.79-23.63,7.47-8.23,13.11-16.55,12.84-24.11-.01-4.19-1.96-7.95-4.94-10.66s-6.97-4.34-11.07-4.27c-7.91.42-14.5,4.93-20.53,10.7s-11.52,12.8-17.24,18.26c-5.55,5.81-11.07,11.82-16.94,17.36-5.87,5.54-12.1,10.62-19.08,14.57-7.57,4.27-15.54,4.83-23.69,3.47-8.15-1.37-16.47-4.66-24.76-8.11-10.36-4.35-20.82-9.27-31.25-14.36-10.43-5.09-20.81-10.35-31.03-15.39-11.58-5.33-19.42-12.94-22.28-21.85-2.85-8.91-.71-19.11,7.68-29.62,6.89-8.65,15.69-16.8,24.6-24.91,8.91-8.11,17.94-16.18,25.31-24.66,5.18-5.27,8.55-12.57,8.57-19.09s-3.31-12.26-11.55-14.42c-4.57-1.2-9.49-.12-14.16,2.15s-9.08,5.73-12.62,9.28c-7.08,6.83-14.25,14.91-21.44,22.73-7.2,7.82-14.42,15.38-21.61,21.17-9.91,8.27-19.57,11.05-27.8,8.63-8.23-2.42-15.03-10.04-19.2-22.56-15.71-43.38-3.67-78.3,19.16-109.4,22.83-31.1,56.45-58.37,83.91-86.46,19.68-25.21,39.95-43.23,63.25-53.3,23.3-10.07,49.64-12.19,81.46-5.6l.26.05.26.05Z"/>
      <path class="cls-1" d="M178.97,69.24c-4.24-6.58-9.09-12.9-14.78-18.26-5.69-5.36-12.21-9.78-19.8-12.56-15.54-6.98-33.05-8.22-49.45-4.57s-31.66,12.22-42.73,24.85l-.16.19-.16.19c-11.3,13.36-17.96,30.66-19.21,48.19s2.93,35.31,13.31,49.64c4.81,7.1,10.57,12.5,16.97,17.17,6.39,4.68,13.41,8.64,20.73,12.87,13.22,7.55,29.31,16.05,44.79,23.78,15.48,7.73,30.36,14.68,41.15,19.12,4.54,1.86,9.07,3.42,13.72,4.52s9.44,1.74,14.51,1.75c11.14.37,20.82-3.37,27.72-10s10.99-16.16,10.95-27.36c.09-6.47-.95-12.86-2.64-19.1s-4.04-12.33-6.55-18.18c-6.66-14.77-14.05-31.14-22.13-47.17-8.08-16.03-16.84-31.71-26.24-45.08Z"/>
      <path class="cls-1" d="M319.8,47.84c-2.17-15.96-10.78-29.13-22.71-37.58S269.92-1.93,254.52.97c-14.74,1.94-28.16,10.3-36.8,21.85-8.63,11.56-12.49,26.32-8.11,41.08,2.5,8.77,5.8,17.66,9.46,26.46,3.66,8.8,7.67,17.5,11.61,25.9,3.28,6.48,6.31,13.17,9.74,19.37s7.26,11.89,12.15,16.38c7.31,7.27,16.46,8.86,24.89,6.54,8.42-2.32,16.12-8.55,20.51-16.9,4.09-8.16,7.73-18.93,10.74-29.84,3.01-10.91,5.39-21.96,6.95-30.66l.04-.23.04-.23c.91-5.52,2.33-10.77,3.32-16.12s1.55-10.8.72-16.73Z"/>
      <path class="cls-1" d="M127.03,233.78c-7.57-3.72-16.04-7.77-24.53-11.55s-16.99-7.32-24.63-10.02c-14.99-5.96-30.85-5.87-44.36-.38s-24.66,16.38-30.24,32.02c-6.57,16.72-2.81,35.69,7.13,50.27,9.94,14.58,26.07,24.75,44.26,23.86h.24s.24-.02.24-.02c7.16-.6,13.86-1.62,20.65-2.84s13.68-2.62,21.21-4c10.18-2.65,21.54-4.68,32.02-8.15s20.07-8.36,26.69-16.73c2.86-3.89,4.37-8.77,4.63-13.81s-.74-10.24-2.91-14.79c-2.89-6.18-7.62-10.67-13.07-14.35s-11.6-6.55-17.35-9.51Z"/>
    </g>
  </g>
</svg>