<?xml version="1.0" encoding="UTF-8"?>
<svg id="Layer_2" data-name="Layer 2" xmlns="http://www.w3.org/2000/svg" xmlns:xlink="http://www.w3.org/1999/xlink" viewBox="0 0 106.37 106.37">
  <defs>
    <style>
      .cls-1 {
        fill: url(#linear-gradient-2);
      }

      .cls-2 {
        fill: url(#linear-gradient-3);
      }

      .cls-3 {
        fill: #7c3aed;
      }

      .cls-4 {
        fill: url(#linear-gradient);
      }
    </style>
    <linearGradient id="linear-gradient" x1="9.2" y1="8.82" x2="35.33" y2="35.93" gradientUnits="userSpaceOnUse">
      <stop offset="0" stop-color="#4f46e5"/>
      <stop offset="1" stop-color="#7c3aed"/>
    </linearGradient>
    <linearGradient id="linear-gradient-2" x1="25.35" y1="-6.74" x2="51.48" y2="20.36" xlink:href="#linear-gradient"/>
    <linearGradient id="linear-gradient-3" x1="-6.35" y1="23.82" x2="19.78" y2="50.92" xlink:href="#linear-gradient"/>
  </defs>
  <g id="Layer_1-2" data-name="Layer 1">
    <g>
      <path class="cls-3" d="M68.41,27.77c3.3.66,7.01,2.53,9.71,5.17,2.7,2.64,4.4,6.06,3.69,9.8-.37,1.48-1.43,2.83-2.68,4.11-1.25,1.28-2.69,2.49-3.83,3.68-.73.8-2,1.88-3,2.99-1,1.11-1.74,2.26-1.4,3.2.19.56.6,1.06,1.1,1.42s1.11.6,1.71.65c1.58.12,3.31-1.47,5.01-3.28s3.35-3.84,4.77-4.59c2.15-1.26,3.78-.39,5.05,1.19,1.27,1.57,2.19,3.84,2.92,5.37.62,1.35,1.22,2.72,1.82,4.1.59,1.37,1.17,2.75,1.75,4.13,1.08,2.62,2.21,5.2,3.36,7.76,1.15,2.56,2.33,5.11,3.51,7.7,1.12,2.63,2.5,5.43,3.43,8.3.93,2.87,1.41,5.82.71,8.74-.82,3.58-3.29,6.03-6.35,7.26-3.07,1.23-6.73,1.23-9.93-.07-1.28-.57-3.6-1.62-6.28-2.82-2.68-1.2-5.72-2.57-8.41-3.78-1.35-.61-2.6-1.17-3.69-1.66-1.08-.49-1.99-.9-2.64-1.19-.52-.2-.98-.5-1.32-.9s-.57-.89-.62-1.47c-.11-.66.05-1.37.36-2.03s.78-1.28,1.28-1.76c1.13-1.17,2.64-2.49,3.84-3.82,1.21-1.33,2.12-2.67,2.07-3.89,0-.68-.32-1.28-.8-1.72s-1.12-.7-1.79-.69c-1.28.07-2.34.8-3.32,1.73s-1.86,2.07-2.78,2.95c-.9.94-1.79,1.91-2.74,2.8-.95.9-1.95,1.72-3.08,2.35-1.22.69-2.51.78-3.82.56s-2.66-.75-4-1.31c-1.67-.7-3.36-1.5-5.05-2.32s-3.36-1.67-5.01-2.49c-1.87-.86-3.14-2.09-3.6-3.53-.46-1.44-.12-3.09,1.24-4.78,1.11-1.4,2.53-2.71,3.97-4.02,1.44-1.31,2.9-2.61,4.09-3.98.84-.85,1.38-2.03,1.38-3.08,0-1.05-.53-1.98-1.87-2.33-.74-.19-1.53-.02-2.29.35-.75.37-1.47.93-2.04,1.5-1.14,1.1-2.3,2.41-3.46,3.67s-2.33,2.48-3.49,3.42c-1.6,1.34-3.16,1.78-4.49,1.39-1.33-.39-2.43-1.62-3.1-3.64-2.54-7.01-.59-12.64,3.09-17.67,3.69-5.02,9.12-9.43,13.55-13.96,3.18-4.07,6.45-6.98,10.21-8.61,3.76-1.63,8.02-1.97,13.15-.9h.04s.04.02.04.02Z"/>
      <path class="cls-4" d="M28.9,11.18c-.68-1.06-1.47-2.08-2.39-2.95-.92-.87-1.97-1.58-3.2-2.03-2.51-1.13-5.34-1.33-7.98-.74-2.65.59-5.11,1.97-6.9,4.01l-.03.03-.03.03c-1.82,2.16-2.9,4.95-3.1,7.78s.47,5.7,2.15,8.02c.78,1.15,1.71,2.02,2.74,2.77s2.17,1.4,3.35,2.08c2.13,1.22,4.73,2.59,7.23,3.84s4.9,2.37,6.65,3.09c.73.3,1.46.55,2.22.73s1.52.28,2.34.28c1.8.06,3.36-.54,4.48-1.61,1.11-1.07,1.78-2.61,1.77-4.42.01-1.05-.15-2.08-.43-3.08-.27-1.01-.65-1.99-1.06-2.94-1.08-2.38-2.27-5.03-3.57-7.62-1.3-2.59-2.72-5.12-4.24-7.28Z"/>
      <path class="cls-1" d="M51.64,7.73c-.35-2.58-1.74-4.7-3.67-6.07-1.93-1.36-4.39-1.97-6.87-1.5-2.38.31-4.55,1.66-5.94,3.53-1.39,1.87-2.02,4.25-1.31,6.63.4,1.42.94,2.85,1.53,4.27s1.24,2.83,1.87,4.18c.53,1.05,1.02,2.13,1.57,3.13s1.17,1.92,1.96,2.65c1.18,1.17,2.66,1.43,4.02,1.06,1.36-.37,2.6-1.38,3.31-2.73.66-1.32,1.25-3.06,1.73-4.82.49-1.76.87-3.55,1.12-4.95v-.04s.01-.04.01-.04c.15-.89.38-1.74.54-2.6.16-.86.25-1.74.12-2.7Z"/>
      <path class="cls-2" d="M20.51,37.75c-1.22-.6-2.59-1.25-3.96-1.87s-2.74-1.18-3.98-1.62c-2.42-.96-4.98-.95-7.16-.06-2.18.89-3.98,2.65-4.88,5.17-1.06,2.7-.45,5.76,1.15,8.12,1.61,2.35,4.21,4,7.15,3.85h.04s.04,0,.04,0c1.16-.1,2.24-.26,3.33-.46,1.1-.2,2.21-.42,3.42-.65,1.64-.43,3.48-.76,5.17-1.32,1.69-.56,3.24-1.35,4.31-2.7.46-.63.71-1.42.75-2.23.04-.81-.12-1.65-.47-2.39-.47-1-1.23-1.72-2.11-2.32s-1.87-1.06-2.8-1.54Z"/>
    </g>
  </g>
</svg>